<svg xmlns="http://www.w3.org/2000/svg" xmlns:xlink="http://www.w3.org/1999/xlink" width="40" height="40" viewBox="0 0 40 40">
  <defs>
    <filter id="Rectangle_2180" x="0" y="0" width="40" height="40" filterUnits="userSpaceOnUse">
      <feOffset dy="3" input="SourceAlpha"/>
      <feGaussianBlur stdDeviation="3" result="blur"/>
      <feFlood flood-opacity="0.161"/>
      <feComposite operator="in" in2="blur"/>
      <feComposite in="SourceGraphic"/>
    </filter>
  </defs>
  <g id="Group_9382" data-name="Group 9382" transform="translate(-30 -461.389)">
    <g transform="matrix(1, 0, 0, 1, 30, 461.39)" filter="url(#Rectangle_2180)">
      <rect id="Rectangle_2180-2" data-name="Rectangle 2180" width="22" height="22" rx="4" transform="translate(9 6)" fill="#fff"/>
    </g>
    <g id="about-svgrepo-com" transform="translate(39.814 466.931)">
      <path id="Path_11426" data-name="Path 11426" d="M13.732,15.278h-7.1L5,16.915V7.637A1.642,1.642,0,0,1,6.637,6h7.1A1.642,1.642,0,0,1,15.37,7.637v6A1.642,1.642,0,0,1,13.732,15.278Z" transform="translate(0 0)" fill="#d00010"/>
      <rect id="Rectangle_2179" data-name="Rectangle 2179" width="1.144" height="2.861" transform="translate(9.611 9.741)" fill="#fff"/>
      <circle id="Ellipse_629" data-name="Ellipse 629" cx="0.572" cy="0.572" r="0.572" transform="translate(9.611 8.025)" fill="#fff"/>
    </g>
  </g>
</svg>
