<svg xmlns="http://www.w3.org/2000/svg" width="26.25" height="26.25" viewBox="0 0 26.25 26.25">
  <g id="_79f7d57431cc05a2f5873b417bb4756b" data-name="79f7d57431cc05a2f5873b417bb4756b" transform="translate(0)">
    <path id="Path_11837" data-name="Path 11837" d="M31.544,10H14.7A4.853,4.853,0,0,0,10,14.757V27.336a4.787,4.787,0,0,0,4.7,4.749l2.121-.008.008,4.173,6.479-4.16h8.237a4.8,4.8,0,0,0,4.7-4.752V14.757A4.682,4.682,0,0,0,31.544,10ZM27.853,25.008h-.005c-.11.011-.214.011-.308.011H18.711c-.091,0-.2,0-.308-.011H18.4c-.332-.029-.683-.15-.683-.632s.348-.6.68-.632H18.4c.11-.011.217-.011.308-.011h8.831c.091,0,.2,0,.308.011h.008c.332.029.68.153.68.632S28.185,24.976,27.853,25.008Zm-.313-6.664H18.711c-.348,0-1,0-1-.654s.648-.654,1-.654h8.831c.348,0,1,0,1,.654S27.887,18.344,27.539,18.344Z" transform="translate(-10 -10)" fill="#fff"/>
  </g>
</svg>
