<svg xmlns="http://www.w3.org/2000/svg" width="24.693" height="27.125" viewBox="0 0 24.693 27.125">
  <g id="_6c1e8708dac67ba27ed7dd84b764e558" data-name="6c1e8708dac67ba27ed7dd84b764e558" transform="translate(0 0)">
    <g id="Group_9311" data-name="Group 9311" transform="translate(0 0)">
      <path id="Path_11835" data-name="Path 11835" d="M290.029-500.928a5.993,5.993,0,0,0-4.374,3.246,5.95,5.95,0,0,0,3.7,8.348,5.955,5.955,0,0,0,7.343-4.081,5.957,5.957,0,0,0-3.89-7.3A6.184,6.184,0,0,0,290.029-500.928Z" transform="translate(-278.639 501)" fill="#fff"/>
      <path id="Path_11836" data-name="Path 11836" d="M64.365,30.086Q57.9,30.6,55.256,34.2a7.788,7.788,0,0,0-1.234,2.767,12.291,12.291,0,0,0-.005,2.9A3.552,3.552,0,0,0,55.8,42.1c.83.41.106.388,10.652.373l9.428-.016.346-.122a3.68,3.68,0,0,0,1.415-.888,2.66,2.66,0,0,0,.622-.883,4.529,4.529,0,0,0,.3-.782,13.8,13.8,0,0,0-.027-2.809A7.874,7.874,0,0,0,74.73,31.9a14.439,14.439,0,0,0-5.709-1.735A42.085,42.085,0,0,0,64.365,30.086Z" transform="translate(-53.933 -15.355)" fill="#fff"/>
    </g>
  </g>
</svg>
