<svg xmlns="http://www.w3.org/2000/svg" width="26.75" height="26.75" viewBox="0 0 26.75 26.75">
  <g id="_8c9b1e7c2b067e8e735edc3f572cd20c" data-name="8c9b1e7c2b067e8e735edc3f572cd20c" transform="translate(0.25 0.25)">
    <path id="Path_11821" data-name="Path 11821" d="M12.076,33.341A2.078,2.078,0,0,1,10,31.265V13.822a2.078,2.078,0,0,1,2.076-2.076h1.412V11.5a1.495,1.495,0,1,1,2.989,0v.249H19.3V11.5a1.5,1.5,0,0,1,2.995,0v.249h2.823v-.249a1.495,1.495,0,0,1,2.989,0v.249h1.412a2.079,2.079,0,0,1,2.076,2.076v4.575c-.23-.1-.45-.177-.664-.249V13.822a1.412,1.412,0,0,0-1.412-1.412H28.107v.249a1.495,1.495,0,0,1-2.989,0v-.249H22.294v.249a1.495,1.495,0,1,1-2.989,0v-.249H16.479v.249a1.495,1.495,0,0,1-2.989,0v-.249H12.076a1.413,1.413,0,0,0-1.412,1.412V31.265a1.412,1.412,0,0,0,1.412,1.412h6.83c.123.217.257.439.41.664ZM26.612,10.664a.831.831,0,0,0-.83.83v1.162a.83.83,0,1,0,1.661,0V11.495a.831.831,0,0,0-.83-.83Zm-5.812,0a.831.831,0,0,0-.83.83v1.162a.83.83,0,1,0,1.661,0V11.495a.833.833,0,0,0-.83-.83Zm-5.815,0a.831.831,0,0,0-.83.83v1.162a.83.83,0,1,0,1.661,0V11.495a.833.833,0,0,0-.83-.83Z" transform="translate(-10 -10)" fill="#fff" stroke="#fff" stroke-width="0.5"/>
    <path id="Path_11822" data-name="Path 11822" d="M358.895,316.892a1.448,1.448,0,0,1-.412-.067,1.491,1.491,0,1,1,1.888-1.618l.008.056a1.035,1.035,0,0,1,.013.131,1.5,1.5,0,0,1-1.5,1.5Zm0-2.328a.83.83,0,1,0,.83.83.831.831,0,0,0-.83-.83Z" transform="translate(-348.094 -305.76)" fill="#fff" stroke="#fff" stroke-width="0.5"/>
    <path id="Path_11823" data-name="Path 11823" d="M163.495,316.989a1.495,1.495,0,1,1,1.495-1.495,1.5,1.5,0,0,1-1.495,1.495Zm0-2.328a.83.83,0,1,0,.83.83.831.831,0,0,0-.83-.83Z" transform="translate(-157.928 -305.857)" fill="#fff" stroke="#fff" stroke-width="0.5"/>
    <path id="Path_11824" data-name="Path 11824" d="M163.495,555.789a1.495,1.495,0,1,1,1.495-1.495,1.5,1.5,0,0,1-1.495,1.495Zm0-2.328a.83.83,0,1,0,.83.83.831.831,0,0,0-.83-.83Z" transform="translate(-157.928 -538.261)" fill="#fff" stroke="#fff" stroke-width="0.5"/>
    <path id="Path_11825" data-name="Path 11825" d="M365.872,374.247a8.474,8.474,0,1,1,2.826-16.454,8.2,8.2,0,0,1,1.13.49,8.472,8.472,0,0,1-3.956,15.964Zm0-16.283a7.789,7.789,0,0,0-6.937,4.232,7.515,7.515,0,0,0-.509,1.224,8.058,8.058,0,0,0-.356,2.245c0,.059-.005.083-.005.11a7.731,7.731,0,0,0,1.663,4.805,7.8,7.8,0,1,0,6.145-12.616Z" transform="translate(-348.094 -347.998)" fill="#fff" stroke="#fff" stroke-width="0.5"/>
    <path id="Path_11826" data-name="Path 11826" d="M619.395,472.961a1.491,1.491,0,0,1-.5-2.9l.166-.059v-3.771a.332.332,0,0,1,.664,0V470l.166.059a1.493,1.493,0,0,1,.905.905l.059.166h3.769a.332.332,0,1,1,0,.664h-3.769l-.059.166a1.5,1.5,0,0,1-1.4,1Zm0-2.325a.817.817,0,0,0-.707.413.808.808,0,0,0-.123.418.83.83,0,1,0,1.661,0,.856.856,0,0,0-.83-.83Z" transform="translate(-601.617 -453.689)" fill="#fff" stroke="#fff" stroke-width="0.5"/>
  </g>
</svg>
