<svg xmlns="http://www.w3.org/2000/svg" width="215.984" height="18.106" viewBox="0 0 215.984 18.106">
  <g id="musical-note-svgrepo-com" transform="translate(-237.945 -31.069)">
    <g id="c76_music">
      <path id="Path_2729" data-name="Path 2729" d="M12.478-187.6a1.239,1.239,0,0,0-1.213.962l-.01,206.6a4.951,4.951,0,0,0-2.826-.09c-2.24.56-3.7,2.405-3.275,4.128.248,1.588,2.592,2.656,4.834,2.092,1.967-.488,3.338-1.977,3.348-3.5h.008L13.4-183.054s3.928-.209,7.774,5.82a7.3,7.3,0,0,0-2.945-5.391C12.459-186.656,12.478-187.6,12.478-187.6Z" transform="translate(265.201 26.999) rotate(90)" fill="#fff" stroke="#fff" stroke-width="2"/>
    </g>
  </g>
</svg>
