<svg xmlns="http://www.w3.org/2000/svg" width="21.778" height="21.773" viewBox="0 0 21.778 21.773">
  <g id="birthday-cake-svgrepo-com" transform="translate(0 -0.063)">
    <g id="Group_9252" data-name="Group 9252" transform="translate(0 0.062)">
      <g id="Group_9251" data-name="Group 9251" transform="translate(0 0)">
        <path id="Path_11432" data-name="Path 11432" d="M223.317,3.687a1.453,1.453,0,0,0,1.452-1.452c0-.7-.984-1.837-1.182-2.057a.374.374,0,0,0-.54,0c-.2.22-1.182,1.353-1.182,2.057A1.453,1.453,0,0,0,223.317,3.687Zm0-2.7a3.254,3.254,0,0,1,.726,1.253.726.726,0,1,1-1.452,0A3.254,3.254,0,0,1,223.317.982Z" transform="translate(-212.428 -0.062)" fill="#737373"/>
        <path id="Path_11433" data-name="Path 11433" d="M205.163,103.064h3.63a.363.363,0,0,0,0-.726h-3.63a.363.363,0,1,0,0,.726Z" transform="translate(-196.089 -97.988)" fill="#737373"/>
        <path id="Path_11434" data-name="Path 11434" d="M69.719,139.969v2.673a.363.363,0,0,0,.726,0V140.1a2.016,2.016,0,0,0,1.185-.624,2.2,2.2,0,0,1,3.437,0,1.438,1.438,0,0,0,2.371,0,2.2,2.2,0,0,1,3.437,0,2.016,2.016,0,0,0,1.185.624v2.541a.363.363,0,0,0,.726,0v-2.673a2.211,2.211,0,0,0,1.452-2.046,1.42,1.42,0,0,0-1.452-1.452H69.719a1.42,1.42,0,0,0-1.452,1.452A2.211,2.211,0,0,0,69.719,139.969Zm0-2.772H82.786a.694.694,0,0,1,.726.726,1.471,1.471,0,0,1-1.452,1.452c-.17,0-.45-.233-.722-.457a2.891,2.891,0,0,0-4.364,0c-.271.225-.552.457-.722.457s-.45-.233-.722-.457a2.89,2.89,0,0,0-4.364,0c-.271.225-.552.457-.722.457a1.471,1.471,0,0,1-1.452-1.452A.694.694,0,0,1,69.719,137.2Z" transform="translate(-65.363 -130.669)" fill="#737373"/>
        <path id="Path_11435" data-name="Path 11435" d="M21.415,494.87H.363a.363.363,0,1,0,0,.726H21.415a.363.363,0,0,0,0-.726Z" transform="translate(0 -473.823)" fill="#737373"/>
        <path id="Path_11436" data-name="Path 11436" d="M1.452,310.635v3.4a.363.363,0,0,0,.726,0v-3.267a2.016,2.016,0,0,0,1.185-.624,2.729,2.729,0,0,1,1.718-.828,2.729,2.729,0,0,1,1.718.828,2.016,2.016,0,0,0,1.185.624,2.016,2.016,0,0,0,1.185-.624,2.729,2.729,0,0,1,1.718-.828,2.729,2.729,0,0,1,1.718.828,2.016,2.016,0,0,0,1.185.624,2.016,2.016,0,0,0,1.185-.624,2.729,2.729,0,0,1,1.718-.828,2.729,2.729,0,0,1,1.718.828,2.016,2.016,0,0,0,1.185.624v3.267a.363.363,0,0,0,.726,0v-3.4a2.211,2.211,0,0,0,1.452-2.046,1.42,1.42,0,0,0-1.452-1.452H1.452A1.42,1.42,0,0,0,0,308.589,2.211,2.211,0,0,0,1.452,310.635Zm0-2.772H20.326a.694.694,0,0,1,.726.726,1.471,1.471,0,0,1-1.452,1.452c-.17,0-.45-.233-.722-.457a3.4,3.4,0,0,0-2.182-.995,3.4,3.4,0,0,0-2.182.995c-.272.225-.552.457-.722.457s-.45-.233-.722-.457a3.4,3.4,0,0,0-2.182-.995,3.4,3.4,0,0,0-2.182.995c-.272.225-.552.457-.722.457s-.45-.233-.722-.457a3.4,3.4,0,0,0-2.182-.995,3.4,3.4,0,0,0-2.182.995c-.272.225-.552.457-.722.457a1.471,1.471,0,0,1-1.452-1.452A.694.694,0,0,1,1.452,307.863Z" transform="translate(0 -294.076)" fill="#737373"/>
      </g>
    </g>
  </g>
</svg>
