<svg xmlns="http://www.w3.org/2000/svg" width="16.167" height="18.477" viewBox="0 0 16.167 18.477">
  <path id="Icon_awesome-calendar-alt" data-name="Icon awesome-calendar-alt" d="M0,16.744a1.733,1.733,0,0,0,1.732,1.732h12.7a1.733,1.733,0,0,0,1.732-1.732V6.929H0ZM11.548,9.671a.434.434,0,0,1,.433-.433h1.443a.434.434,0,0,1,.433.433v1.443a.434.434,0,0,1-.433.433H11.981a.434.434,0,0,1-.433-.433Zm0,4.619a.434.434,0,0,1,.433-.433h1.443a.434.434,0,0,1,.433.433v1.443a.434.434,0,0,1-.433.433H11.981a.434.434,0,0,1-.433-.433ZM6.929,9.671a.434.434,0,0,1,.433-.433H8.805a.434.434,0,0,1,.433.433v1.443a.434.434,0,0,1-.433.433H7.362a.434.434,0,0,1-.433-.433Zm0,4.619a.434.434,0,0,1,.433-.433H8.805a.434.434,0,0,1,.433.433v1.443a.434.434,0,0,1-.433.433H7.362a.434.434,0,0,1-.433-.433ZM2.31,9.671a.434.434,0,0,1,.433-.433H4.186a.434.434,0,0,1,.433.433v1.443a.434.434,0,0,1-.433.433H2.743a.434.434,0,0,1-.433-.433Zm0,4.619a.434.434,0,0,1,.433-.433H4.186a.434.434,0,0,1,.433.433v1.443a.434.434,0,0,1-.433.433H2.743a.434.434,0,0,1-.433-.433ZM14.435,2.31H12.7V.577A.579.579,0,0,0,12.125,0H10.97a.579.579,0,0,0-.577.577V2.31H5.774V.577A.579.579,0,0,0,5.2,0H4.042a.579.579,0,0,0-.577.577V2.31H1.732A1.733,1.733,0,0,0,0,4.042V5.774H16.167V4.042A1.733,1.733,0,0,0,14.435,2.31Z" fill="#b8b8b8"/>
</svg>
