<svg xmlns="http://www.w3.org/2000/svg" width="15.969" height="13.973" viewBox="0 0 15.969 13.973">
  <path id="Icon_awesome-camera" data-name="Icon awesome-camera" d="M15.969,5.743v8.982a1.5,1.5,0,0,1-1.5,1.5H1.5a1.5,1.5,0,0,1-1.5-1.5V5.743a1.5,1.5,0,0,1,1.5-1.5H4.242L4.625,3.22a1.5,1.5,0,0,1,1.4-.97H9.94a1.5,1.5,0,0,1,1.4.97l.387,1.026h2.745A1.5,1.5,0,0,1,15.969,5.743Zm-4.242,4.491a3.743,3.743,0,1,0-3.743,3.743A3.746,3.746,0,0,0,11.727,10.234Zm-1,0A2.745,2.745,0,1,1,7.984,7.49,2.749,2.749,0,0,1,10.729,10.234Z" transform="translate(0 -2.25)" fill="#f4f5f6"/>
</svg>
