<svg id="card-cvv" xmlns="http://www.w3.org/2000/svg" width="19.38" height="12.873" viewBox="0 0 19.38 12.873">
  <path id="Path_10568" data-name="Path 10568" d="M1.112,0H18.268A1.115,1.115,0,0,1,19.38,1.112V11.759a1.117,1.117,0,0,1-1.112,1.113H1.112A1.115,1.115,0,0,1,0,11.759V1.112A1.112,1.112,0,0,1,1.112,0ZM14.983,8.305H15.8l.607,1.941L17,8.305h.845l-1,2.7h-.9l-.99-2.623L13.98,11h-.9l-1.019-2.7h.871l.607,1.941.6-1.941h.849ZM11.251,9.9l.73.221a1.325,1.325,0,0,1-.232.513,1,1,0,0,1-.393.311,1.476,1.476,0,0,1-.6.106,1.738,1.738,0,0,1-.719-.128,1.141,1.141,0,0,1-.481-.449,1.516,1.516,0,0,1-.2-.823,1.4,1.4,0,0,1,.356-1.028,1.358,1.358,0,0,1,1.008-.36,1.358,1.358,0,0,1,.8.207,1.213,1.213,0,0,1,.434.634l-.735.162a.578.578,0,0,0-.08-.178.516.516,0,0,0-.834.028.969.969,0,0,0-.114.53,1.009,1.009,0,0,0,.136.614.47.47,0,0,0,.383.166.461.461,0,0,0,.361-.134.808.808,0,0,0,.18-.39ZM9.772,4.156h3.657a.416.416,0,0,1,.415.415V6.006a.416.416,0,0,1-.415.415H9.772a.415.415,0,0,1-.415-.415V4.571a.415.415,0,0,1,.415-.415Zm4.509,1.438v.413a.85.85,0,0,1-.251.6A.316.316,0,0,1,14,6.64a.849.849,0,0,1-.568.219H9.772a.849.849,0,0,1-.6-.251l0,0,0,0a.85.85,0,0,1-.251-.6V5.593H.643v6.167a.474.474,0,0,0,.47.47H18.27a.474.474,0,0,0,.47-.47V5.593H14.281ZM2.462,8.362a.323.323,0,0,1,0-.645H7.045a.323.323,0,0,1,0,.645Zm0,1.691a.323.323,0,0,1,0-.645H5.28a.323.323,0,0,1,0,.645ZM.643,2.4H18.737V1.112a.474.474,0,0,0-.47-.47H1.112A.466.466,0,0,0,.781.781a.472.472,0,0,0-.137.331V2.4Z" transform="translate(0 0)" fill="#b8b8b8" fill-rule="evenodd"/>
</svg>
