<svg xmlns="http://www.w3.org/2000/svg" xmlns:xlink="http://www.w3.org/1999/xlink" width="40" height="40" viewBox="0 0 40 40">
  <defs>
    <filter id="Rectangle_2175" x="0" y="0" width="40" height="40" filterUnits="userSpaceOnUse">
      <feOffset dy="3" input="SourceAlpha"/>
      <feGaussianBlur stdDeviation="3" result="blur"/>
      <feFlood flood-opacity="0.161"/>
      <feComposite operator="in" in2="blur"/>
      <feComposite in="SourceGraphic"/>
    </filter>
  </defs>
  <g id="Group_9379" data-name="Group 9379" transform="translate(-30 -217)">
    <g transform="matrix(1, 0, 0, 1, 30, 217)" filter="url(#Rectangle_2175)">
      <rect id="Rectangle_2175-2" data-name="Rectangle 2175" width="22" height="22" rx="4" transform="translate(9 6)" fill="#fff"/>
    </g>
    <path id="Icon_material-lock-outline" data-name="Icon material-lock-outline" d="M12.027,13.554a1.507,1.507,0,1,0-1.507-1.507A1.511,1.511,0,0,0,12.027,13.554Zm4.52-6.78h-.753V5.267a3.767,3.767,0,1,0-7.534,0V6.774H7.507A1.511,1.511,0,0,0,6,8.28v7.534a1.511,1.511,0,0,0,1.507,1.507h9.04a1.511,1.511,0,0,0,1.507-1.507V8.28A1.511,1.511,0,0,0,16.547,6.774ZM9.691,5.267a2.335,2.335,0,0,1,4.671,0V6.774H9.691Zm6.856,10.547H7.507V8.28h9.04Z" transform="translate(37.5 225.008)" fill="#d00010"/>
  </g>
</svg>
