<svg xmlns="http://www.w3.org/2000/svg" width="15.695" height="15.695" viewBox="0 0 15.695 15.695">
  <path id="Icon_ionic-ios-close-circle" data-name="Icon ionic-ios-close-circle" d="M11.223,3.375a7.848,7.848,0,1,0,7.848,7.848A7.846,7.846,0,0,0,11.223,3.375Zm1.988,10.689-1.988-1.988L9.234,14.064a.6.6,0,1,1-.853-.853l1.988-1.988L8.382,9.234a.6.6,0,0,1,.853-.853l1.988,1.988,1.988-1.988a.6.6,0,0,1,.853.853l-1.988,1.988,1.988,1.988a.606.606,0,0,1,0,.853A.6.6,0,0,1,13.211,14.064Z" transform="translate(-3.375 -3.375)" fill="#d5d5d5"/>
</svg>
