<svg xmlns="http://www.w3.org/2000/svg" width="8.175" height="15.701" viewBox="0 0 8.175 15.701">
  <path id="Icon_metro-dollar2" data-name="Icon metro-dollar2" d="M18.132,12.586a3.333,3.333,0,0,1-.872,2.309A3.763,3.763,0,0,1,15,16.091v1.533a.27.27,0,0,1-.28.28H13.532a.284.284,0,0,1-.28-.28V16.091a5.523,5.523,0,0,1-1.117-.272,5.381,5.381,0,0,1-1.538-.81,4.994,4.994,0,0,1-.407-.329q-.109-.105-.153-.158a.266.266,0,0,1-.018-.359l.9-1.183a.273.273,0,0,1,.2-.105.217.217,0,0,1,.21.079l.018.018a4.575,4.575,0,0,0,2.129,1.1,3.06,3.06,0,0,0,.648.07,2.124,2.124,0,0,0,1.249-.377,1.227,1.227,0,0,0,.539-1.069.888.888,0,0,0-.131-.464,1.642,1.642,0,0,0-.294-.368,2.4,2.4,0,0,0-.513-.329q-.35-.18-.578-.28t-.7-.285l-.539-.219q-.2-.079-.539-.232t-.548-.272q-.206-.118-.5-.311a3.085,3.085,0,0,1-.469-.372,5.461,5.461,0,0,1-.381-.429,2.144,2.144,0,0,1-.311-.508,3.514,3.514,0,0,1-.184-.583,3.041,3.041,0,0,1-.074-.683,3,3,0,0,1,.859-2.12,4.009,4.009,0,0,1,2.234-1.174V2.484a.284.284,0,0,1,.28-.28h1.183a.27.27,0,0,1,.28.28V4.026a4.874,4.874,0,0,1,.968.2,5.614,5.614,0,0,1,.762.294,4.222,4.222,0,0,1,.556.329q.263.184.342.254t.131.123a.253.253,0,0,1,.044.333l-.71,1.279a.239.239,0,0,1-.2.14.279.279,0,0,1-.237-.061q-.026-.026-.127-.105t-.342-.232a4.522,4.522,0,0,0-.513-.28,3.913,3.913,0,0,0-.653-.228,2.923,2.923,0,0,0-.749-.1,2.277,2.277,0,0,0-1.358.377,1.178,1.178,0,0,0-.451,1.393.986.986,0,0,0,.258.364,3.861,3.861,0,0,0,.346.289,3.086,3.086,0,0,0,.491.272q.329.153.53.237t.613.241q.464.175.71.276t.666.307a5.293,5.293,0,0,1,.662.372,5.594,5.594,0,0,1,.543.438,2.269,2.269,0,0,1,.464.556,3.175,3.175,0,0,1,.276.67,2.891,2.891,0,0,1,.114.824Z" transform="translate(-9.957 -2.203)" fill="#ababab"/>
</svg>
