<svg xmlns="http://www.w3.org/2000/svg" width="21.779" height="14.702" viewBox="0 0 21.779 14.702">
  <path id="Icon_zocial-email" data-name="Icon zocial-email" d="M.072,17.467V5.37q0-.021.063-.4l7.12,6.091-7.1,6.826a1.78,1.78,0,0,1-.084-.42ZM1.017,4.131a.905.905,0,0,1,.357-.063H20.549a1.189,1.189,0,0,1,.378.063l-7.141,6.112L12.841,11l-1.869,1.533L9.1,11l-.945-.756Zm.021,14.576L8.2,11.839l2.772,2.247,2.772-2.247,7.162,6.868a1.008,1.008,0,0,1-.357.063H1.374a.951.951,0,0,1-.336-.063ZM14.69,11.062l7.1-6.091a1.254,1.254,0,0,1,.063.4v12.1a1.61,1.61,0,0,1-.063.42Z" transform="translate(-0.072 -4.068)" fill="#737373"/>
</svg>
