<svg xmlns="http://www.w3.org/2000/svg" width="22.469" height="22.469" viewBox="0 0 22.469 22.469">
  <g id="event-svgrepo-com" transform="translate(0.282)">
    <path id="Path_11067" data-name="Path 11067" d="M20.852,4.809a1.4,1.4,0,0,0-1.4-1.4H16.639V2h-1.4V3.4H9.617V2h-1.4V3.4H5.4A1.4,1.4,0,0,0,4,4.809V18.852a1.4,1.4,0,0,0,1.4,1.4H8.213v-1.4H5.4V4.809H8.213v1.4h1.4v-1.4h5.617v1.4h1.4v-1.4h2.809V9.021h1.4Z" transform="translate(-1.275 -0.596)" fill="#b8b8b8"/>
    <path id="Path_11068" data-name="Path 11068" d="M18.617,15l1.79,3.467,3.827.555-2.809,2.7.7,3.811-3.511-1.8-3.511,1.8.7-3.811L13,19.023l3.932-.555Z" transform="translate(-3.956 -4.468)" fill="#b8b8b8"/>
    <rect id="_Transparent_Rectangle_" data-name="&lt;Transparent Rectangle&gt;" width="22.469" height="22.469" transform="translate(-0.282)" fill="none"/>
  </g>
</svg>
