<svg xmlns="http://www.w3.org/2000/svg" xmlns:xlink="http://www.w3.org/1999/xlink" width="40" height="40" viewBox="0 0 40 40">
  <defs>
    <filter id="Rectangle_2184" x="0" y="0" width="40" height="40" filterUnits="userSpaceOnUse">
      <feOffset dy="3" input="SourceAlpha"/>
      <feGaussianBlur stdDeviation="3" result="blur"/>
      <feFlood flood-opacity="0.161"/>
      <feComposite operator="in" in2="blur"/>
      <feComposite in="SourceGraphic"/>
    </filter>
  </defs>
  <g id="Group_9381" data-name="Group 9381" transform="translate(-29 -287)">
    <g id="Group_9380" data-name="Group 9380">
      <g id="Group_9379" data-name="Group 9379">
        <g transform="matrix(1, 0, 0, 1, 29, 287)" filter="url(#Rectangle_2184)">
          <rect id="Rectangle_2184-2" data-name="Rectangle 2184" width="22" height="22" rx="4" transform="translate(9 6)" fill="#fff"/>
        </g>
      </g>
    </g>
    <path id="Icon_awesome-users" data-name="Icon awesome-users" d="M1.328,4.906a.885.885,0,1,0-.885-.885A.886.886,0,0,0,1.328,4.906Zm6.2,0a.885.885,0,1,0-.885-.885A.886.886,0,0,0,7.525,4.906Zm.443.443H7.083a.883.883,0,0,0-.624.257A2.023,2.023,0,0,1,7.5,7.119h.913a.442.442,0,0,0,.443-.443V6.234A.886.886,0,0,0,7.968,5.349Zm-3.541,0A1.549,1.549,0,1,0,2.877,3.8,1.549,1.549,0,0,0,4.427,5.349Zm1.062.443H5.374a2.139,2.139,0,0,1-1.9,0H3.364A1.594,1.594,0,0,0,1.771,7.385v.4a.664.664,0,0,0,.664.664H6.419a.664.664,0,0,0,.664-.664v-.4A1.594,1.594,0,0,0,5.489,5.791ZM2.395,5.606a.883.883,0,0,0-.624-.257H.885A.886.886,0,0,0,0,6.234v.443a.442.442,0,0,0,.443.443h.912A2.029,2.029,0,0,1,2.395,5.606Z" transform="translate(44.646 297.202)" fill="#d00010"/>
    <path id="Icon_ionic-ios-heart-empty" data-name="Icon ionic-ios-heart-empty" d="M14.9,3.938h-.038a4.315,4.315,0,0,0-3.6,1.972,4.315,4.315,0,0,0-3.6-1.972H7.622A4.287,4.287,0,0,0,3.375,8.223a9.231,9.231,0,0,0,1.813,5.032,31.766,31.766,0,0,0,6.075,5.851,31.766,31.766,0,0,0,6.075-5.851A9.231,9.231,0,0,0,19.15,8.223,4.287,4.287,0,0,0,14.9,3.938Zm1.578,8.692a29.086,29.086,0,0,1-5.218,5.142,29.129,29.129,0,0,1-5.218-5.146,8.181,8.181,0,0,1-1.608-4.4A3.217,3.217,0,0,1,7.63,5h.034a3.179,3.179,0,0,1,1.559.41,3.314,3.314,0,0,1,1.153,1.081,1.065,1.065,0,0,0,1.782,0A3.347,3.347,0,0,1,13.31,5.413,3.179,3.179,0,0,1,14.869,5H14.9A3.217,3.217,0,0,1,18.1,8.223,8.284,8.284,0,0,1,16.481,12.629Z" transform="translate(37.625 292.063)" fill="#d00010"/>
  </g>
</svg>
