<svg xmlns="http://www.w3.org/2000/svg" width="14.387" height="19.858" viewBox="0 0 14.387 19.858">
  <g id="Group_9382" data-name="Group 9382" transform="translate(-63.307 -397.571)">
    <path id="Icon_ionic-md-female" data-name="Icon ionic-md-female" d="M17.835,7.23a4.98,4.98,0,1,0-5.81,4.911V13.87H9.535v1.66h2.49v2.213h1.66V15.53h2.49V13.87h-2.49V12.141A4.979,4.979,0,0,0,17.835,7.23Zm-8.3,0a3.32,3.32,0,1,1,3.32,3.32A3.325,3.325,0,0,1,9.535,7.23Z" transform="translate(55.432 399.686)" fill="#737373"/>
    <path id="Icon_ionic-md-male" data-name="Icon ionic-md-male" d="M16.1,3.375H11.675v1.66h3.254l-3.69,3.687A4.979,4.979,0,1,0,12.415,9.9L16.1,6.207V9.462h1.66V3.375ZM8.355,16.1a3.32,3.32,0,1,1,3.32-3.32A3.325,3.325,0,0,1,8.355,16.1Z" transform="translate(59.932 394.196)" fill="#737373"/>
  </g>
</svg>
