<svg xmlns="http://www.w3.org/2000/svg" width="30.613" height="27.125" viewBox="0 0 30.613 27.125">
  <g id="c14_house" transform="translate(0 0)">
    <path id="Path_11441" data-name="Path 11441" d="M3.588,27.239a.635.635,0,0,0,.641.684c.833,0,7.716-.009,7.716-.009l.012-6.323s-.109-1.042.9-1.042h3.2a.993.993,0,0,1,1.123,1.042l-.014,6.3h7.554a.791.791,0,0,0,.811-.851V15.382L14.889,5.913l-11.3,9.47Z" transform="translate(0.574 -0.798)" fill="#fff"/>
    <path id="Path_11442" data-name="Path 11442" d="M0,15.207s.958,1.768,3.052,0L15.558,4.627,27.282,15.141c2.422,1.747,3.33,0,3.33,0L15.558,1.5Z" transform="translate(0 -1.504)" fill="#fff"/>
    <path id="Path_11443" data-name="Path 11443" d="M23.689,4.175H20.674l.013,3.658,3,2.549Z" transform="translate(3.308 -1.077)" fill="#fff"/>
  </g>
</svg>
