<svg xmlns="http://www.w3.org/2000/svg" xmlns:xlink="http://www.w3.org/1999/xlink" width="31" height="31" viewBox="0 0 31 31">
  <defs>
    <filter id="Ellipse_552" x="0" y="0" width="31" height="31" filterUnits="userSpaceOnUse">
      <feOffset dy="3" input="SourceAlpha"/>
      <feGaussianBlur stdDeviation="3" result="blur"/>
      <feFlood flood-opacity="0.161"/>
      <feComposite operator="in" in2="blur"/>
      <feComposite in="SourceGraphic"/>
    </filter>
  </defs>
  <g id="Group_9377" data-name="Group 9377" transform="translate(-34 -107)">
    <g transform="matrix(1, 0, 0, 1, 34, 107)" filter="url(#Ellipse_552)">
      <circle id="Ellipse_552-2" data-name="Ellipse 552" cx="6.5" cy="6.5" r="6.5" transform="translate(9 6)" fill="#d00010"/>
    </g>
    <path id="Icon_ionic-ios-arrow-round-back" data-name="Icon ionic-ios-arrow-round-back" d="M11.814,11.39a.493.493,0,0,1,0,.694l-2.288,2.3,7.351,0a.49.49,0,0,1,0,.98l-7.351,0,2.292,2.3a.5.5,0,0,1,0,.694.488.488,0,0,1-.69,0L8.022,15.216h0a.55.55,0,0,1-.1-.155.468.468,0,0,1-.038-.188.491.491,0,0,1,.139-.343L11.128,11.4A.48.48,0,0,1,11.814,11.39Z" transform="translate(36.876 104.629)" fill="#fff"/>
  </g>
</svg>
