<svg xmlns="http://www.w3.org/2000/svg" width="13" height="17.063" viewBox="0 0 13 17.063">
  <path id="Icon_material-lock-outline" data-name="Icon material-lock-outline" d="M12.5,14.5a1.625,1.625,0,1,0-1.625-1.625A1.63,1.63,0,0,0,12.5,14.5Zm4.875-7.313h-.812V5.563a4.063,4.063,0,0,0-8.125,0V7.188H7.625A1.63,1.63,0,0,0,6,8.813v8.125a1.63,1.63,0,0,0,1.625,1.625h9.75A1.63,1.63,0,0,0,19,16.938V8.813A1.63,1.63,0,0,0,17.375,7.188ZM9.981,5.563a2.519,2.519,0,1,1,5.037,0V7.188H9.981Zm7.394,11.375H7.625V8.813h9.75Z" transform="translate(-6 -1.5)" fill="#737373"/>
</svg>
