<svg xmlns="http://www.w3.org/2000/svg" width="24.186" height="24.19" viewBox="0 0 24.186 24.19">
  <g id="logout-svgrepo-com_1_" data-name="logout-svgrepo-com (1)" transform="translate(0.303 0.309)">
    <g id="Group_9250" data-name="Group 9250" transform="translate(-0.001 0)">
      <g id="Group_9249" data-name="Group 9249">
        <path id="Path_11427" data-name="Path 11427" d="M102.793,221.782a.393.393,0,0,1,.393.393v2.358a.393.393,0,0,1-.786,0v-2.358A.393.393,0,0,1,102.793,221.782Z" transform="translate(-83.319 -211.567)" fill="#fff" stroke="#fff" stroke-width="0.6"/>
        <path id="Path_11428" data-name="Path 11428" d="M1.923.128,5.639,1.615A1.818,1.818,0,0,1,7.075,3.555V20.068A1.813,1.813,0,0,1,5.649,22L1.915,23.5a1.556,1.556,0,0,1-.552.105A1.429,1.429,0,0,1,0,22.034V1.59A1.408,1.408,0,0,1,1.923.128ZM.786,22.034c0,.469.232.784.577.784a.778.778,0,0,0,.267-.052l3.735-1.495c.742-.275.923-.511.923-1.2V3.555c0-.693-.181-.929-.932-1.207L1.638.861A.782.782,0,0,0,1.364.806c-.346,0-.578.315-.578.784Z" transform="translate(16.509 -0.023)" fill="#fff" stroke="#fff" stroke-width="0.6"/>
        <path id="Path_11429" data-name="Path 11429" d="M177.117,34.834h-5.552a1.181,1.181,0,0,0-1.179,1.179v5.9a.393.393,0,0,1-.786,0v-5.9a1.968,1.968,0,0,1,1.965-1.965h5.552a.393.393,0,0,1,0,.786Z" transform="translate(-161.739 -32.481)" fill="#fff" stroke="#fff" stroke-width="0.6"/>
        <path id="Path_11430" data-name="Path 11430" d="M171.06,298.582a.393.393,0,0,1,.393.393v5.9a1.181,1.181,0,0,0,1.179,1.179h5.5a.393.393,0,1,1,0,.786h-5.5a1.968,1.968,0,0,1-1.965-1.965v-5.9A.393.393,0,0,1,171.06,298.582Z" transform="translate(-162.806 -284.83)" fill="#fff" stroke="#fff" stroke-width="0.6"/>
        <path id="Path_11431" data-name="Path 11431" d="M187.764,166.212a.393.393,0,0,1,.085-.128l3.93-3.931a.393.393,0,0,1,.556.556l-3.26,3.26h13.2a.393.393,0,1,1,0,.786h-13.2l3.26,3.26a.393.393,0,1,1-.556.556l-3.93-3.93a.394.394,0,0,1-.085-.428Z" transform="translate(-187.734 -154.575)" fill="#fff" stroke="#fff" stroke-width="0.6"/>
      </g>
    </g>
  </g>
</svg>
