<svg xmlns="http://www.w3.org/2000/svg" xmlns:xlink="http://www.w3.org/1999/xlink" width="41.053" height="52" viewBox="0 0 41.053 52">
  <defs>
    <filter id="Rectangle_2193" x="1.304" y="0" width="38.74" height="23.44" filterUnits="userSpaceOnUse">
      <feOffset dy="3" input="SourceAlpha"/>
      <feGaussianBlur stdDeviation="3" result="blur"/>
      <feFlood flood-opacity="0.161"/>
      <feComposite operator="in" in2="blur"/>
      <feComposite in="SourceGraphic"/>
    </filter>
    <filter id="Rectangle_2194" x="1.984" y="27.54" width="37.04" height="24.46" filterUnits="userSpaceOnUse">
      <feOffset dy="3" input="SourceAlpha"/>
      <feGaussianBlur stdDeviation="3" result="blur-2"/>
      <feFlood flood-opacity="0.161"/>
      <feComposite operator="in" in2="blur-2"/>
      <feComposite in="SourceGraphic"/>
    </filter>
    <filter id="Icon_simple-applemusic" x="6.448" y="11.923" width="28.156" height="28.155" filterUnits="userSpaceOnUse">
      <feOffset dy="3" input="SourceAlpha"/>
      <feGaussianBlur stdDeviation="3" result="blur-3"/>
      <feFlood flood-opacity="0.161"/>
      <feComposite operator="in" in2="blur-3"/>
      <feComposite in="SourceGraphic"/>
    </filter>
  </defs>
  <g id="Group_9320" data-name="Group 9320" transform="translate(-149.54 -113)">
    <circle id="Ellipse_632" data-name="Ellipse 632" cx="8.5" cy="8.5" r="8.5" transform="translate(161.544 127.5)" fill="#d00010"/>
    <g id="Icon_feather-wifi" data-name="Icon feather-wifi" transform="translate(189.093 123.79) rotate(90)">
      <path id="Path_11844" data-name="Path 11844" d="M0,2.984a12.883,12.883,0,0,1,16.491,0" transform="translate(4.193 5.855)" fill="none" stroke="#d00010" stroke-linecap="round" stroke-linejoin="round" stroke-width="3"/>
      <path id="Path_11845" data-name="Path 11845" d="M0,4.682a18.739,18.739,0,0,1,24.783,0" transform="translate(0 0)" fill="none" stroke="#d00010" stroke-linecap="round" stroke-linejoin="round" stroke-width="3"/>
      <path id="Path_11847" data-name="Path 11847" d="M0,0" transform="translate(12.345 14.889)" fill="none" stroke="#d00010" stroke-linecap="round" stroke-linejoin="round" stroke-width="3"/>
    </g>
    <g id="Icon_feather-wifi-2" data-name="Icon feather-wifi" transform="translate(165.929 123.79) rotate(90)">
      <path id="Path_11844-2" data-name="Path 11844" d="M0,0A12.883,12.883,0,0,0,16.491,0" transform="translate(4.193 6.049)" fill="none" stroke="#d00010" stroke-linecap="round" stroke-linejoin="round" stroke-width="3"/>
      <path id="Path_11845-2" data-name="Path 11845" d="M0,0A18.739,18.739,0,0,0,24.783,0" transform="translate(0 10.207)" fill="none" stroke="#d00010" stroke-linecap="round" stroke-linejoin="round" stroke-width="3"/>
      <path id="Path_11847-2" data-name="Path 11847" d="M0,0" transform="translate(12.345 0)" fill="none" stroke="#d00010" stroke-linecap="round" stroke-linejoin="round" stroke-width="3"/>
    </g>
    <g transform="matrix(1, 0, 0, 1, 149.54, 113)" filter="url(#Rectangle_2193)">
      <path id="Rectangle_2193-2" data-name="Rectangle 2193" d="M5.44,0h15.3a0,0,0,0,1,0,0V0A5.44,5.44,0,0,1,15.3,5.44H0a0,0,0,0,1,0,0v0A5.44,5.44,0,0,1,5.44,0Z" transform="translate(10.3 6)" fill="#232322"/>
    </g>
    <text id="LIVE" transform="translate(169.624 123)" fill="#ff0014" font-size="4" font-family="Roboto-Bold, Roboto" font-weight="700"><tspan x="-4.099" y="0">LIVE</tspan></text>
    <g transform="matrix(1, 0, 0, 1, 149.54, 113)" filter="url(#Rectangle_2194)">
      <rect id="Rectangle_2194-2" data-name="Rectangle 2194" width="19.04" height="6.46" rx="3.23" transform="translate(10.98 33.54)" fill="#232322"/>
    </g>
    <text id="MUSIC" transform="translate(170.044 151.27)" fill="#fff" font-size="4" font-family="Roboto-Regular, Roboto"><tspan x="-6.075" y="0">MUSIC</tspan></text>
    <g transform="matrix(1, 0, 0, 1, 149.54, 113)" filter="url(#Icon_simple-applemusic)">
      <path id="Icon_simple-applemusic-2" data-name="Icon simple-applemusic" d="M10.156,2.592a3.906,3.906,0,0,0-.1-.927A2.08,2.08,0,0,0,9.132.378,2.125,2.125,0,0,0,8.338.07,4.442,4.442,0,0,0,7.676.007L7.624,0H2.536L2.343.013a2.951,2.951,0,0,0-.928.17A2.114,2.114,0,0,0,.2,1.359a2.378,2.378,0,0,0-.154.6,4.489,4.489,0,0,0-.042.5c0,.014,0,.026,0,.039V7.665c0,.059.007.12.011.179a2.785,2.785,0,0,0,.21,1,2.108,2.108,0,0,0,1.368,1.186,2.781,2.781,0,0,0,.547.1c.235.022.47.025.705.025H7.513a5.29,5.29,0,0,0,.664-.042,2.259,2.259,0,0,0,.972-.343,2.135,2.135,0,0,0,.8-.934,2.345,2.345,0,0,0,.157-.56,5.172,5.172,0,0,0,.058-.863q0-2.412,0-4.821ZM7.439,4.281V6.7a1.14,1.14,0,0,1-.1.51.9.9,0,0,1-.587.482,1.953,1.953,0,0,1-.453.073.792.792,0,0,1-.383-1.506,1.805,1.805,0,0,1,.431-.137c.16-.035.321-.065.48-.1A.261.261,0,0,0,7.039,5.8a.382.382,0,0,0,.008-.082q0-1.152,0-2.3a.307.307,0,0,0-.011-.078.122.122,0,0,0-.129-.1,1.531,1.531,0,0,0-.2.028l-.965.193-.984.2-.581.118-.02.006a.191.191,0,0,0-.165.207c0,.018,0,.036,0,.055q0,1.652,0,3.3a1.3,1.3,0,0,1-.091.519.9.9,0,0,1-.607.522,1.88,1.88,0,0,1-.455.073.779.779,0,0,1-.812-.653.789.789,0,0,1,.488-.878A2.5,2.5,0,0,1,2.981,6.8l.364-.075a.294.294,0,0,0,.254-.3V6.358q0-1.879,0-3.758a.673.673,0,0,1,.018-.157.294.294,0,0,1,.231-.219c.108-.028.218-.047.328-.07l.931-.188.961-.195L6.918,1.6A2.569,2.569,0,0,1,7.2,1.556a.209.209,0,0,1,.234.2.87.87,0,0,1,.005.094q0,1.212,0,2.425Z" transform="translate(15.45 17.92)" fill="#fff"/>
    </g>
  </g>
</svg>
