<svg xmlns="http://www.w3.org/2000/svg" width="27" height="27" viewBox="0 0 27 27">
  <g id="Group_9377" data-name="Group 9377" transform="translate(-94 -462)">
    <circle id="Ellipse_510" data-name="Ellipse 510" cx="13.5" cy="13.5" r="13.5" transform="translate(94 462)" fill="#f195ee" opacity="0.3"/>
    <g id="mastercard-4-logo-svgrepo-com" transform="translate(100.037 470.88)">
      <path id="Path_3315" data-name="Path 3315" d="M81.706,54.928a4.534,4.534,0,0,0,3.077,1.2,4.62,4.62,0,0,0,0-9.241,4.534,4.534,0,0,0-3.077,1.2,4.624,4.624,0,0,0,0,6.845Z" transform="translate(-74.028 -46.885)" fill="#e9b040" fill-rule="evenodd"/>
      <path id="Path_3316" data-name="Path 3316" d="M172.041,122.563a.142.142,0,0,1,.143-.143.144.144,0,0,1,.151.143.146.146,0,0,1-.151.151A.144.144,0,0,1,172.041,122.563Zm.143.119a.122.122,0,0,0,.119-.119.115.115,0,0,0-.119-.111.113.113,0,0,0-.111.111A.121.121,0,0,0,172.184,122.682Zm-.016-.048h-.032V122.5h.055a.047.047,0,0,1,.032.008c.016.008.016.016.016.032s-.008.032-.024.032l.032.063h-.04l-.016-.056h-.024v-.024h.032c.008,0,.008-.008.008-.016s0-.008-.008-.016h-.032Z" transform="translate(-157.304 -115.369)" fill="#e9b040" fill-rule="evenodd"/>
      <path id="Path_3317" data-name="Path 3317" d="M23.335,51.018c-.016-.167-.048-.325-.079-.492H20.448a4.837,4.837,0,0,1,.127-.484h2.546q-.083-.25-.19-.492H20.773q.119-.252.262-.492h1.626a4.173,4.173,0,0,0-.349-.484h-.928a4.563,4.563,0,0,1,.468-.492,4.62,4.62,0,1,0,0,6.845,4.4,4.4,0,0,0,.46-.484h-.928a5.47,5.47,0,0,1-.349-.492h1.626a3.689,3.689,0,0,0,.27-.492H20.773a5.163,5.163,0,0,1-.2-.484h2.546a4.944,4.944,0,0,0,.135-.492,4.881,4.881,0,0,0,.079-.492,4.818,4.818,0,0,0,.024-.484c0-.166-.008-.333-.024-.491Z" transform="translate(-14.174 -46.885)" fill="#cc2131" fill-rule="evenodd"/>
      <path id="Path_3318" data-name="Path 3318" d="M172.041,106.429a.144.144,0,0,1,.143-.151.146.146,0,0,1,.151.151.147.147,0,1,1-.293,0Zm.143.111a.111.111,0,1,0,0-.222.111.111,0,0,0,0,.222Zm-.016-.048h-.032v-.127h.087c.016.008.016.024.016.04a.043.043,0,0,1-.024.032l.032.055h-.04l-.016-.048h-.024v-.024h.016c.008,0,.016,0,.016-.008s.008-.008.008-.016a.008.008,0,0,0-.008-.008c0-.008-.008,0-.016,0h-.016Z" transform="translate(-157.304 -100.734)" fill="#fff" fill-rule="evenodd"/>
      <path id="Path_3319" data-name="Path 3319" d="M23.139,87.661a1.467,1.467,0,0,1-.373.063c-.238,0-.381-.151-.381-.42a1.426,1.426,0,0,1,.016-.174l.032-.182.024-.151.214-1.3h.476l-.056.286h.3l-.071.476h-.3l-.127.777a.365.365,0,0,0-.008.079c0,.1.048.143.167.143a.868.868,0,0,0,.151-.016Zm1.539-.016a1.866,1.866,0,0,1-.508.071.762.762,0,0,1-.849-.849c0-.658.365-1.134.872-1.134a.635.635,0,0,1,.666.69,2.187,2.187,0,0,1-.055.468h-.991a.223.223,0,0,0-.008.063c0,.222.151.333.436.333a1.2,1.2,0,0,0,.516-.119Zm-.293-1.134v-.1a.22.22,0,0,0-.238-.246c-.159,0-.27.119-.317.341h.555Zm-5.053,1.174H18.84l.286-1.8-.642,1.8h-.341l-.04-1.792-.3,1.792h-.484l.389-2.34h.722l.016,1.444.484-1.444h.793Zm1.2-.849a.45.45,0,0,0-.1-.008c-.286,0-.428.111-.428.286a.179.179,0,0,0,.182.2c.238,0,.333-.2.341-.476Zm.4.849H20.5l.008-.2a.581.581,0,0,1-.524.23.481.481,0,0,1-.444-.523.839.839,0,0,1,.04-.246c.079-.294.373-.476.825-.484.056,0,.143,0,.222.008a.422.422,0,0,0,.016-.127c0-.127-.1-.167-.333-.167a1.323,1.323,0,0,0-.412.063l-.071.016-.032.008.071-.428a1.862,1.862,0,0,1,.579-.1c.428,0,.658.2.658.563a1.8,1.8,0,0,1-.024.373l-.111.682-.016.119-.008.1-.008.063-.008.055ZM27.073,85.8a.954.954,0,0,1,.444.127l.087-.508a1.1,1.1,0,0,0-.127-.048l-.2-.056a1.408,1.408,0,0,0-.769.071,1.491,1.491,0,0,0-.294.254l-.063-.016-.508.357.024-.2h-.524l-.309,1.9h.5l.182-1.023s.072-.143.1-.19a.289.289,0,0,1,.278-.119h.04a2.561,2.561,0,0,0-.024.365.89.89,0,0,0,.888,1.007,1.6,1.6,0,0,0,.436-.063l.087-.539a.9.9,0,0,1-.42.127c-.293,0-.468-.222-.468-.571C26.438,86.162,26.7,85.8,27.073,85.8Zm4.212-.452-.111.666a.514.514,0,0,0-.452-.27.748.748,0,0,0-.658.436V86.17l-.317-.19.032-.2h-.531l-.3,1.9h.492l.167-1.023s.127-.143.159-.19a.31.31,0,0,1,.222-.119,1.716,1.716,0,0,0-.087.563c0,.476.246.793.611.793a.576.576,0,0,0,.46-.214l-.024.19h.468l.381-2.34h-.508Zm-.611,1.888c-.167,0-.254-.127-.254-.373,0-.373.159-.642.389-.642.174,0,.262.135.262.373C31.071,86.971,30.912,87.232,30.674,87.232Zm-2.292-.4a.45.45,0,0,0-.1-.008c-.286,0-.428.111-.428.286a.18.18,0,0,0,.183.2C28.279,87.312,28.374,87.113,28.382,86.836Zm.4.849h-.436l.016-.2a.581.581,0,0,1-.523.23.483.483,0,0,1-.46-.523c0-.452.341-.73.88-.73a2.056,2.056,0,0,1,.214.008.488.488,0,0,0,.024-.127c0-.127-.1-.167-.341-.167a1.362,1.362,0,0,0-.412.063l-.063.016-.032.008.071-.428a1.863,1.863,0,0,1,.579-.1c.428,0,.65.2.65.563a1.366,1.366,0,0,1-.024.373l-.1.682-.016.119-.016.1-.008.063v.055Zm-6.814-1.5a2.352,2.352,0,0,1,.373.032l.071-.444c-.143-.016-.333-.04-.444-.04-.555,0-.738.3-.738.65a.542.542,0,0,0,.373.523c.2.1.23.111.23.2,0,.119-.1.19-.294.19a1.328,1.328,0,0,1-.452-.079l-.056.436.008.008.1.016a1.25,1.25,0,0,0,.127.024c.119.008.222.016.286.016.555,0,.785-.214.785-.635a.542.542,0,0,0-.373-.531c-.214-.1-.238-.111-.238-.2S21.814,86.185,21.965,86.185Z" transform="translate(-17.024 -81.704)" fill="#1b3771" fill-rule="evenodd"/>
      <path id="Path_3320" data-name="Path 3320" d="M29.2,83.88l-.087.508a.953.953,0,0,0-.444-.127c-.373,0-.635.365-.635.88,0,.357.174.571.468.571a.974.974,0,0,0,.42-.119l-.087.531a1.652,1.652,0,0,1-.436.072c-.539,0-.872-.389-.872-1.015,0-.833.46-1.42,1.118-1.42a.976.976,0,0,1,.23.024l.2.048c.064.024.079.032.127.048Zm-1.6.349h-.048c-.166,0-.262.079-.412.309l.048-.293h-.452l-.309,1.9h.5c.182-1.166.23-1.364.468-1.364h.032a1.994,1.994,0,0,1,.19-.547Zm-2.871,1.9a1.029,1.029,0,0,1-.357.063.367.367,0,0,1-.4-.42,1.307,1.307,0,0,1,.016-.167l.032-.19.024-.151.214-1.3h.492l-.056.286h.254l-.063.468h-.254l-.135.793a.3.3,0,0,0-.008.079c0,.1.048.135.167.135a.33.33,0,0,0,.135-.016l-.063.42Zm-1.912-1.277a.555.555,0,0,0,.373.531c.206.1.238.127.238.206,0,.119-.087.174-.286.174a1.482,1.482,0,0,1-.444-.071l-.071.436.024.008.087.016a.521.521,0,0,0,.135.016,1.833,1.833,0,0,0,.27.016c.523,0,.769-.2.769-.635a.527.527,0,0,0-.349-.531c-.214-.1-.238-.119-.238-.206,0-.1.087-.151.246-.151a3.1,3.1,0,0,1,.357.024L24,84.245a2.873,2.873,0,0,0-.436-.04C23.009,84.205,22.811,84.5,22.819,84.848ZM33,86.148h-.468l.024-.183a.594.594,0,0,1-.46.206c-.365,0-.6-.309-.6-.785,0-.635.373-1.174.809-1.174a.57.57,0,0,1,.476.262l.111-.666h.492Zm-.73-.444c.23,0,.389-.27.389-.643,0-.246-.087-.373-.262-.373-.222,0-.389.262-.389.635Q32.012,85.7,32.273,85.7Zm-6.02.4a1.625,1.625,0,0,1-.516.079.756.756,0,0,1-.841-.857c0-.65.365-1.134.865-1.134a.637.637,0,0,1,.674.69,1.917,1.917,0,0,1-.063.476h-.983a.156.156,0,0,0-.008.056c0,.222.151.333.436.333a1.091,1.091,0,0,0,.516-.119Zm-.278-1.134v-.1a.22.22,0,0,0-.238-.246c-.159,0-.27.119-.317.341Zm-5.053,1.174h-.492l.286-1.8-.642,1.8h-.341l-.04-1.785-.3,1.785h-.46l.389-2.34h.714l.024,1.452.476-1.452h.777Zm1.229-.849c-.048,0-.071-.008-.111-.008-.278,0-.42.1-.42.293a.167.167,0,0,0,.174.19C22,85.776,22.144,85.585,22.152,85.3Zm.365.849H22.1l.008-.2a.618.618,0,0,1-.524.23.461.461,0,0,1-.452-.516c0-.468.317-.738.872-.738.056,0,.127.008.206.016a.4.4,0,0,0,.016-.119c0-.127-.087-.174-.317-.174a1.636,1.636,0,0,0-.412.048l-.071.024-.048.008.071-.428a2,2,0,0,1,.595-.1c.428,0,.658.19.658.555a2.4,2.4,0,0,1-.04.381l-.111.674-.016.119-.008.1-.008.072-.008.047ZM30,85.3c-.056,0-.079-.008-.111-.008-.286,0-.428.1-.428.293a.173.173,0,0,0,.183.19C29.846,85.776,30,85.585,30,85.3Zm.365.849h-.412l.008-.2a.618.618,0,0,1-.523.23.461.461,0,0,1-.452-.516c0-.468.317-.738.872-.738.056,0,.127.008.2.016a.5.5,0,0,0,.024-.119c0-.127-.087-.174-.317-.174a1.7,1.7,0,0,0-.42.048l-.063.024-.048.008.071-.428a2,2,0,0,1,.595-.1c.428,0,.65.19.65.555a1.707,1.707,0,0,1-.04.381l-.1.674-.016.119-.016.1-.008.072v.047Zm1.333-1.92h-.048c-.166,0-.262.079-.412.309l.048-.293h-.452l-.3,1.9h.492c.183-1.166.23-1.364.468-1.364h.032a1.994,1.994,0,0,1,.19-.547Z" transform="translate(-18.488 -80.319)" fill="#fff" fill-rule="evenodd"/>
    </g>
  </g>
</svg>
