<svg xmlns="http://www.w3.org/2000/svg" xmlns:xlink="http://www.w3.org/1999/xlink" width="40" height="40" viewBox="0 0 40 40">
  <defs>
    <filter id="Rectangle_2174" x="0" y="0" width="40" height="40" filterUnits="userSpaceOnUse">
      <feOffset dy="3" input="SourceAlpha"/>
      <feGaussianBlur stdDeviation="3" result="blur"/>
      <feFlood flood-opacity="0.161"/>
      <feComposite operator="in" in2="blur"/>
      <feComposite in="SourceGraphic"/>
    </filter>
  </defs>
  <g id="Group_9378" data-name="Group 9378" transform="translate(-30 -171)">
    <g transform="matrix(1, 0, 0, 1, 30, 171)" filter="url(#Rectangle_2174)">
      <rect id="Rectangle_2174-2" data-name="Rectangle 2174" width="22" height="22" rx="4" transform="translate(9 6)" fill="#fff"/>
    </g>
    <path id="Icon_material-notifications-none" data-name="Icon material-notifications-none" d="M12.527,19.66a1.637,1.637,0,0,0,1.632-1.632H10.9A1.637,1.637,0,0,0,12.527,19.66Zm4.9-4.9v-4.08a4.963,4.963,0,0,0-3.672-5.157V4.974a1.224,1.224,0,0,0-2.448,0v.555a4.965,4.965,0,0,0-3.672,5.157v4.08L6,16.4v.816H19.055V16.4Zm-1.632.816H9.264v-4.9c0-2.023,1.232-3.672,3.264-3.672s3.264,1.648,3.264,3.672Z" transform="translate(37 176.506)" fill="#d00010"/>
  </g>
</svg>
