<svg xmlns="http://www.w3.org/2000/svg" width="18.597" height="22.5" viewBox="0 0 18.597 22.5">
  <g id="order-27" transform="translate(0)">
    <path id="Path_3198" data-name="Path 3198" d="M293.186,379.3h8.647a.432.432,0,1,1,0,.865h-8.647a.432.432,0,1,1,0-.865Zm-2.162,0a.432.432,0,1,1-.432.432A.432.432,0,0,1,291.024,379.3Zm2.162-4.324h8.647a.432.432,0,1,1,0,.865h-8.647a.432.432,0,1,1,0-.865Zm-2.162,0a.432.432,0,1,1-.432.432A.432.432,0,0,1,291.024,374.98Zm2.162-4.324h8.647a.432.432,0,1,1,0,.865h-8.647a.432.432,0,1,1,0-.865Zm-2.162,0a.432.432,0,1,1-.432.432A.432.432,0,0,1,291.024,370.656Z" transform="translate(-287.13 -362.873)" fill="#d00010"/>
    <path id="Path_3199" data-name="Path 3199" d="M389.308,86.98h-3.459a1.515,1.515,0,0,1-1.513-1.513v-1.3a1.515,1.515,0,0,1,1.513-1.513h3.459a1.515,1.515,0,0,1,1.513,1.513v1.3A1.516,1.516,0,0,1,389.308,86.98Zm-3.459-3.459a.649.649,0,0,0-.649.649v1.3a.649.649,0,0,0,.649.649h3.459a.649.649,0,0,0,.648-.649v-1.3a.649.649,0,0,0-.648-.649Z" transform="translate(-378.34 -82.656)" fill="#d00010"/>
    <path id="Path_3200" data-name="Path 3200" d="M177.181,166.788h-10.8a3.831,3.831,0,0,1-3.9-3.753V149.753a3.831,3.831,0,0,1,3.9-3.753h.842a.432.432,0,1,1,0,.865h-.842a2.966,2.966,0,0,0-3.032,2.888v13.282a2.966,2.966,0,0,0,3.032,2.888h10.8a2.966,2.966,0,0,0,3.032-2.888V149.753a2.966,2.966,0,0,0-3.032-2.888h-.849a.432.432,0,1,1,0-.865h.849a3.831,3.831,0,0,1,3.9,3.753v13.282A3.831,3.831,0,0,1,177.181,166.788Z" transform="translate(-162.479 -144.288)" fill="#d00010"/>
  </g>
</svg>
