<svg xmlns="http://www.w3.org/2000/svg" xmlns:xlink="http://www.w3.org/1999/xlink" width="40" height="40" viewBox="0 0 40 40">
  <defs>
    <filter id="Rectangle_2171" x="0" y="0" width="40" height="40" filterUnits="userSpaceOnUse">
      <feOffset dy="3" input="SourceAlpha"/>
      <feGaussianBlur stdDeviation="3" result="blur"/>
      <feFlood flood-opacity="0.161"/>
      <feComposite operator="in" in2="blur"/>
      <feComposite in="SourceGraphic"/>
    </filter>
  </defs>
  <g id="Group_9377" data-name="Group 9377" transform="translate(-30 -125)">
    <g transform="matrix(1, 0, 0, 1, 30, 125)" filter="url(#Rectangle_2171)">
      <rect id="Rectangle_2171-2" data-name="Rectangle 2171" width="22" height="22" rx="4" transform="translate(9 6)" fill="#fff"/>
    </g>
    <path id="Path_11838" data-name="Path 11838" d="M.946,0h14.6a.948.948,0,0,1,.946.946v9.059a.951.951,0,0,1-.946.947H.946A.948.948,0,0,1,0,10.005V.946A.946.946,0,0,1,.946,0Zm11.8,7.067h.694l.517,1.652.51-1.652h.719l-.852,2.3h-.769l-.843-2.232-.829,2.232h-.769l-.867-2.3H11l.517,1.652.51-1.652h.722ZM9.573,8.422l.621.188a1.127,1.127,0,0,1-.2.436.855.855,0,0,1-.334.264,1.256,1.256,0,0,1-.509.09,1.479,1.479,0,0,1-.612-.109.971.971,0,0,1-.409-.382,1.29,1.29,0,0,1-.173-.7,1.188,1.188,0,0,1,.3-.875,1.155,1.155,0,0,1,.857-.306A1.155,1.155,0,0,1,9.8,7.2a1.032,1.032,0,0,1,.369.539l-.625.138a.492.492,0,0,0-.068-.152.439.439,0,0,0-.71.024.824.824,0,0,0-.1.451.859.859,0,0,0,.115.522.4.4,0,0,0,.326.141.392.392,0,0,0,.307-.114.688.688,0,0,0,.153-.331ZM8.315,3.536h3.112a.354.354,0,0,1,.353.353V5.11a.354.354,0,0,1-.353.353H8.315a.353.353,0,0,1-.353-.353V3.889a.353.353,0,0,1,.353-.353ZM12.151,4.76v.352a.723.723,0,0,1-.213.513.269.269,0,0,1-.03.025.722.722,0,0,1-.483.187H8.315A.722.722,0,0,1,7.8,5.623h0a.723.723,0,0,1-.213-.513V4.758H.548v5.247a.4.4,0,0,0,.4.4h14.6a.4.4,0,0,0,.4-.4V4.758H12.151ZM2.095,7.115a.274.274,0,0,1,0-.549h3.9a.274.274,0,0,1,0,.549Zm0,1.439a.274.274,0,0,1,0-.549h2.4a.274.274,0,0,1,0,.549ZM.548,2.038H15.942V.946a.4.4,0,0,0-.4-.4H.946A.4.4,0,0,0,.664.664.4.4,0,0,0,.548.946V2.038Z" transform="translate(41.281 136.528)" fill="#d00010" fill-rule="evenodd"/>
  </g>
</svg>
