<svg xmlns="http://www.w3.org/2000/svg" xmlns:xlink="http://www.w3.org/1999/xlink" width="40" height="40" viewBox="0 0 40 40">
  <defs>
    <filter id="Rectangle_2185" x="0" y="0" width="40" height="40" filterUnits="userSpaceOnUse">
      <feOffset dy="3" input="SourceAlpha"/>
      <feGaussianBlur stdDeviation="3" result="blur"/>
      <feFlood flood-opacity="0.161"/>
      <feComposite operator="in" in2="blur"/>
      <feComposite in="SourceGraphic"/>
    </filter>
  </defs>
  <g id="Group_9382" data-name="Group 9382" transform="translate(-29 -340)">
    <g transform="matrix(1, 0, 0, 1, 29, 340)" filter="url(#Rectangle_2185)">
      <rect id="Rectangle_2185-2" data-name="Rectangle 2185" width="22" height="22" rx="4" transform="translate(9 6)" fill="#fff"/>
    </g>
    <path id="Icon_ionic-ios-settings" data-name="Icon ionic-ios-settings" d="M16.475,11.026a1.68,1.68,0,0,1,1.078-1.567,6.658,6.658,0,0,0-.806-1.941,1.7,1.7,0,0,1-.683.146,1.676,1.676,0,0,1-1.533-2.359A6.638,6.638,0,0,0,12.593,4.5a1.678,1.678,0,0,1-3.134,0,6.658,6.658,0,0,0-1.941.806A1.676,1.676,0,0,1,5.985,7.665,1.647,1.647,0,0,1,5.3,7.518a6.8,6.8,0,0,0-.8,1.944,1.679,1.679,0,0,1,0,3.134,6.658,6.658,0,0,0,.806,1.941,1.677,1.677,0,0,1,2.213,2.213,6.7,6.7,0,0,0,1.941.806,1.675,1.675,0,0,1,3.127,0,6.658,6.658,0,0,0,1.941-.806,1.678,1.678,0,0,1,2.213-2.213,6.7,6.7,0,0,0,.806-1.941A1.688,1.688,0,0,1,16.475,11.026Zm-5.418,2.716a2.719,2.719,0,1,1,2.719-2.719A2.719,2.719,0,0,1,11.057,13.742Z" transform="translate(37.973 345.972)" fill="#d00010"/>
  </g>
</svg>
