<svg xmlns="http://www.w3.org/2000/svg" xmlns:xlink="http://www.w3.org/1999/xlink" width="245.129" height="247.625" viewBox="0 0 245.129 247.625">
  <defs>
    <filter id="Icon_simple-applemusic" x="182.853" y="129.528" width="29.422" height="29.422" filterUnits="userSpaceOnUse">
      <feOffset dy="3" input="SourceAlpha"/>
      <feGaussianBlur stdDeviation="3" result="blur"/>
      <feFlood flood-opacity="0.161"/>
      <feComposite operator="in" in2="blur"/>
      <feComposite in="SourceGraphic"/>
    </filter>
  </defs>
  <g id="Successful_purchase-pana_1_" data-name="Successful purchase-pana (1)" transform="translate(-34.59 -33.61)">
    <g id="freepik--background-complete--inject-25" transform="translate(72.061 33.61)">
      <path id="Path_10569" data-name="Path 10569" d="M103.98,274.929s-5.153,1.362-.817,12.484a138.713,138.713,0,0,0,7.547,16.74s.709,2.554-1.4,2.724-6.588-1.01-7.763,1.43.437,5.192,4.086,7.751,11.429,8.466,12.132,9,1.311,1.748-.108,2.094-11.763.386-11.451,5.294,11.644,10.373,12.87,11,1.475,1.192,1.305,1.878-3.654.38-6.6.511-6.333.8-5.913,3.615,6.809,9.295,23.55,12.649l7.865,1.05,4.965-6.242c9.806-13.988,9.965-23.079,8.325-25.405s-4.54-.477-6.781,1.458-4.54,4.54-5.107,4.188-.817-.97-.357-2.27,4.9-13.052,1.736-16.836-10.68,3.342-11.945,4.063-1.657-.567-1.521-1.441,1.7-10.515,2.576-14.884.233-7.439-2.395-8.432c-2.531-.953-4.96,3-6.605,4.324s-2.888-1.01-2.888-1.01a138.587,138.587,0,0,0-6.083-17.324c-4.534-11.043-9.312-8.387-9.312-8.387" transform="translate(-100.861 -137.877)" fill="#ebebeb"/>
      <path id="Path_10570" data-name="Path 10570" d="M144.594,372.829c-3.3-8.12-8.926-22.659-13.812-35.114S121.459,314,118.2,305.858c-1.634-4.057-2.951-7.377-3.87-9.647l-1.05-2.622-.267-.681a2.273,2.273,0,0,1-.085-.238s.04.074.108.227.165.386.289.675l1.1,2.6c.942,2.27,2.27,5.544,3.938,9.607,3.3,8.12,7.763,19.379,12.654,31.834s10.481,27,13.744,35.137" transform="translate(-105.947 -145.664)" fill="#e0e0e0"/>
      <path id="Path_10571" data-name="Path 10571" d="M112.77,337.31a2.6,2.6,0,0,1,.533.21c.34.148.823.375,1.413.658,1.186.567,2.8,1.413,4.574,2.372l4.54,2.463,1.373.732a2.639,2.639,0,0,1,.494.3,3.476,3.476,0,0,1-.539-.2c-.335-.148-.817-.38-1.407-.67-1.18-.567-2.786-1.447-4.54-2.4l-4.54-2.429-1.373-.732A2.207,2.207,0,0,1,112.77,337.31Z" transform="translate(-105.878 -164.973)" fill="#e0e0e0"/>
      <path id="Path_10572" data-name="Path 10572" d="M136.549,336.838c-.062-.028,1.515-3.439,3.524-7.615s3.683-7.542,3.745-7.513-1.515,3.444-3.524,7.621S136.611,336.872,136.549,336.838Z" transform="translate(-116.162 -158.225)" fill="#e0e0e0"/>
      <path id="Path_10573" data-name="Path 10573" d="M148.26,373.946a2.84,2.84,0,0,1,.369-.454l1.067-1.186c.9-1,2.128-2.389,3.4-3.972s2.44-3.047,3.252-4.12c.386-.5.7-.925.965-1.265a2.523,2.523,0,0,1,.375-.448,2.408,2.408,0,0,1-.3.505c-.21.312-.511.766-.9,1.317-.777,1.1-1.89,2.588-3.2,4.171s-2.565,2.962-3.5,3.932c-.465.482-.846.874-1.135,1.135A2.626,2.626,0,0,1,148.26,373.946Z" transform="translate(-121.228 -175.869)" fill="#e0e0e0"/>
      <path id="Path_10574" data-name="Path 10574" d="M124.55,377.4a2.225,2.225,0,0,1,.567.062l1.447.261c1.22.233,2.905.567,4.761.959s3.53.755,4.744,1.027l1.43.34a2.268,2.268,0,0,1,.522.159,2.208,2.208,0,0,1-.567-.062l-1.447-.267c-1.226-.233-2.905-.567-4.761-.953s-3.535-.755-4.744-1.033l-1.436-.335a2.15,2.15,0,0,1-.516-.159Z" transform="translate(-110.973 -182.313)" fill="#e0e0e0"/>
      <path id="Path_10575" data-name="Path 10575" d="M131,409a3.787,3.787,0,0,1,.692.091l1.856.329c1.566.289,3.728.7,6.106,1.175s4.54.919,6.1,1.254l1.839.4a3.65,3.65,0,0,1,.67.182,3.4,3.4,0,0,1-.687-.085l-1.856-.329c-1.566-.289-3.728-.7-6.112-1.18s-4.54-.919-6.095-1.248l-1.844-.409A4.057,4.057,0,0,1,131,409Z" transform="translate(-113.763 -195.982)" fill="#e0e0e0"/>
      <path id="Path_10576" data-name="Path 10576" d="M160.78,403.4a4.006,4.006,0,0,1,.448-.568l1.294-1.549c1.1-1.311,2.593-3.127,4.194-5.181s3-3.938,4.006-5.317l1.192-1.634a4.628,4.628,0,0,1,.46-.567,3.728,3.728,0,0,1-.38.636c-.261.4-.641.976-1.135,1.7-.97,1.4-2.349,3.314-3.972,5.368s-3.127,3.853-4.25,5.141c-.567.636-1.027,1.135-1.356,1.5a4.357,4.357,0,0,1-.5.471Z" transform="translate(-126.644 -187.149)" fill="#e0e0e0"/>
      <rect id="Rectangle_2057" data-name="Rectangle 2057" width="55.112" height="84.75" rx="7.54" transform="translate(116.66 174.04) rotate(-31.14)" fill="#ebebeb"/>
      <path id="Path_10577" data-name="Path 10577" d="M429.082,402.494a5.845,5.845,0,1,1,2.654-3.6,5.851,5.851,0,0,1-2.654,3.6Z" transform="translate(-238.855 -188.472)" fill="#fff"/>
      <path id="Path_10578" data-name="Path 10578" d="M432.362,414.116a5.934,5.934,0,0,1-1.475-.182,6.083,6.083,0,1,1,1.475.182Zm0-11.7A5.561,5.561,0,1,0,435.2,412.76h0a5.567,5.567,0,0,0-1.549-10.169,5.373,5.373,0,0,0-1.328-.176Z" transform="translate(-241.483 -192.932)" fill="#fff"/>
      <path id="Path_10579" data-name="Path 10579" d="M339.739,332.582l-4.029,2.429-.25-.409,3.66-2.213-.567-.948.369-.221Z" transform="translate(-202.2 -162.339)" fill="#fff"/>
      <path id="Path_10580" data-name="Path 10580" d="M339.421,341.116l-.369.221-1.7-2.837.289-.182,2.65.687a1.549,1.549,0,0,0,1.322-.062c.465-.284.567-.783.187-1.4a1.617,1.617,0,0,0-1.135-.828l.074-.448a2.117,2.117,0,0,1,1.436,1.078c.494.817.392,1.589-.278,1.992a1.941,1.941,0,0,1-1.663.1l-2.173-.567Z" transform="translate(-203.018 -164.523)" fill="#fff"/>
      <path id="Path_10581" data-name="Path 10581" d="M345.117,348.751l-.488-.806-1.061.636-.25-.414,1.055-.636L343,345.262l.3-.182,3.972.522.278.46-3.842-.488,1.055,1.748.931-.567.244.4-.931.567.488.806Z" transform="translate(-205.462 -168.334)" fill="#fff"/>
      <path id="Path_10582" data-name="Path 10582" d="M351.691,359.621l-.488-.806-1.055.641-.25-.414,1.055-.641-1.373-2.27.3-.182,3.972.522.278.46-3.842-.488,1.055,1.748.936-.567.238.4-.931.567.5.789Z" transform="translate(-208.308 -173.036)" fill="#fff"/>
      <path id="Path_10583" data-name="Path 10583" d="M355.369,365.354c-.681.414-1.509.255-2.1-.726a2.44,2.44,0,0,1-.357-1.753h.448a2.049,2.049,0,0,0,.284,1.521c.414.681.965.845,1.453.567s.647-.828,0-1.856l-.516-.857,2.145-1.01,1.328,2.2-.369.221-1.135-1.839-1.362.636.312.516C356.283,364.174,356.084,364.923,355.369,365.354Z" transform="translate(-209.733 -175.324)" fill="#fff"/>
      <path id="Path_10584" data-name="Path 10584" d="M359.731,372.461a1.464,1.464,0,0,1-2.066-.624c-.647-1.073-.255-2.1,1.016-2.871,1.368-.823,2.531-.505,3.189.567a2.179,2.179,0,0,1,.363,1.09l-.437.034a1.74,1.74,0,0,0-2.792-1.328,3.526,3.526,0,0,0-.318.216,1.492,1.492,0,0,1,1.43.817,1.419,1.419,0,0,1-.386,2.1Zm-.261-.4a1.027,1.027,0,1,0-.822.087,1.033,1.033,0,0,0,.822-.087Z" transform="translate(-211.672 -178.464)" fill="#fff"/>
      <path id="Path_10585" data-name="Path 10585" d="M365.439,381.845c-.67.409-1.481.233-2.071-.743a2.423,2.423,0,0,1-.357-1.759h.448a2.06,2.06,0,0,0,.289,1.532c.4.67.936.846,1.436.567s.6-.823.142-1.572l-.17-.284.3-.187,2.071.272-1.243-2.06.369-.221,1.566,2.588-.3.176-2.122-.272A1.33,1.33,0,0,1,365.439,381.845Z" transform="translate(-214.1 -182.309)" fill="#fff"/>
      <path id="Path_10586" data-name="Path 10586" d="M369.891,389.288a1.464,1.464,0,0,1-2.066-.63c-.647-1.067-.255-2.1,1.016-2.866,1.368-.828,2.537-.511,3.195.567a2.191,2.191,0,0,1,.357,1.084l-.431.034a1.7,1.7,0,0,0-.284-.9,1.644,1.644,0,0,0-2.514-.426c-.091.051-.2.13-.318.21a1.521,1.521,0,0,1,1.436.817,1.424,1.424,0,0,1-.391,2.105Zm-.255-.4a1.033,1.033,0,1,0-.823.089A1.033,1.033,0,0,0,369.636,388.885Z" transform="translate(-216.067 -185.741)" fill="#fff"/>
      <path id="Path_10587" data-name="Path 10587" d="M376.571,393.563l-.289.176-4.755.567-.267-.448,4.659-.567-1.254-2.071-.749.454-.25-.409,1.135-.675Z" transform="translate(-217.685 -188.019)" fill="#fff"/>
      <path id="Path_10588" data-name="Path 10588" d="M382.7,403.733l-.289.176-4.755.567-.267-.448,4.659-.567-1.254-2.071-.755.46-.244-.409,1.135-.681Z" transform="translate(-220.337 -192.418)" fill="#fff"/>
      <path id="Path_10589" data-name="Path 10589" d="M383.959,412.775c-.709.431-1.521.091-2.1-.868s-.494-1.822.216-2.27a1.18,1.18,0,0,1,1.464.182,1.055,1.055,0,0,1,.5-1.169c.658-.4,1.4-.085,1.918.766s.448,1.668-.2,2.066a1.078,1.078,0,0,1-1.277-.108A1.192,1.192,0,0,1,383.959,412.775Zm-.25-.431c.494-.3.567-.914.119-1.623s-1-.948-1.492-.647-.567.908-.125,1.623S383.21,412.645,383.709,412.344Zm.443-1.822c.38.624.891.828,1.328.567s.488-.84.125-1.447-.88-.823-1.328-.567S383.777,409.91,384.151,410.522Z" transform="translate(-222.105 -195.757)" fill="#fff"/>
      <path id="Path_10590" data-name="Path 10590" d="M388.942,419.191c-1.368.828-2.536.511-3.195-.567a2.224,2.224,0,0,1-.358-1.09l.431-.034a1.7,1.7,0,0,0,.284.9,1.648,1.648,0,0,0,2.514.431c.091-.057.2-.131.318-.216a1.515,1.515,0,0,1-1.436-.817,1.419,1.419,0,0,1,.392-2.083,1.458,1.458,0,0,1,2.066.624C390.6,417.369,390.213,418.4,388.942,419.191Zm.454-1.05a1.1,1.1,0,0,0,.221-1.589,1.027,1.027,0,1,0-1.7,1.084,1.084,1.084,0,0,0,1.481.477Z" transform="translate(-223.797 -198.796)" fill="#fff"/>
      <path id="Path_10591" data-name="Path 10591" d="M396.223,425.962,392.2,428.4l-.25-.414,3.654-2.213-.567-.948.369-.221Z" transform="translate(-226.635 -202.73)" fill="#fff"/>
      <path id="Path_10592" data-name="Path 10592" d="M395.871,434.545l-.369.227-1.7-2.837.3-.176,2.65.681a1.555,1.555,0,0,0,1.322-.062c.465-.278.568-.783.182-1.4a1.6,1.6,0,0,0-1.135-.828l.074-.443a2.105,2.105,0,0,1,1.441,1.078c.494.817.392,1.583-.284,1.992a1.929,1.929,0,0,1-1.657.1l-2.173-.567Z" transform="translate(-227.435 -204.94)" fill="#fff"/>
      <path id="Path_10593" data-name="Path 10593" d="M400.8,440.365c-.675.409-1.487.233-2.071-.743a2.423,2.423,0,0,1-.358-1.759h.448a2.06,2.06,0,0,0,.289,1.532c.4.664.936.846,1.436.567s.567-.823.142-1.572l-.176-.289.306-.182,2.071.272-1.243-2.06.369-.221,1.56,2.588-.289.176-2.122-.272A1.331,1.331,0,0,1,400.8,440.365Z" transform="translate(-229.395 -207.622)" fill="#fff"/>
      <rect id="Rectangle_2058" data-name="Rectangle 2058" width="2.053" height="37.873" transform="matrix(0.856, -0.517, 0.517, 0.856, 148.317, 205.65)" fill="#fff"/>
      <rect id="Rectangle_2059" data-name="Rectangle 2059" width="2.043" height="19.328" transform="translate(152.804 223.169) rotate(-31.14)" fill="#fff"/>
      <rect id="Rectangle_2060" data-name="Rectangle 2060" width="15.809" height="11.814" rx="4.96" transform="translate(149.637 159.546) rotate(58.86)" fill="#e0e0e0"/>
      <path id="Path_10594" data-name="Path 10594" d="M351.43,320.6l.647-.392,4.216,6.968a1.7,1.7,0,1,0,2.917-1.759L355,318.452l.647-.392,4.211,6.968a2.459,2.459,0,1,1-4.211,2.542Z" transform="translate(-209.108 -156.647)" fill="#ebebeb"/>
      <rect id="Rectangle_2061" data-name="Rectangle 2061" width="0.764" height="5.617" transform="matrix(0.856, -0.517, 0.517, 0.856, 150.838, 171.561)" fill="#ebebeb"/>
      <rect id="Rectangle_2062" data-name="Rectangle 2062" width="40.664" height="3.49" transform="translate(158.93 156.119) rotate(58.86)" fill="#fff"/>
      <path id="Path_10595" data-name="Path 10595" d="M162.293,33.61c-.431,6.129,0,17.546-2.23,23.266S154.854,68.5,149.281,71.062c-6.878,3.155-14.958,1.816-22.3,3.666-11.5,2.894-19.816,13.443-23.362,24.758s-3.155,23.436-2.729,35.285l58.675,8.137s.306-23.833,5.425-30.353,29.434-12.371,37.452-30.194c7.229-16.042,9.408-41.481,9.408-41.481Z" transform="translate(-100.624 -33.61)" fill="#f5f5f5"/>
      <path id="Path_10596" data-name="Path 10596" d="M232.475,58.7l-.76-1.4a2.094,2.094,0,0,1-.318,0l-1.078-.131-.159,1.271-.42-.051.494-4.012,1.5.187c1.021.125,1.572.721,1.47,1.578a1.254,1.254,0,0,1-1.073,1.135l.806,1.492Zm.3-2.633c.079-.641-.3-1.061-1.1-1.135l-1.067-.131-.244,2.009,1.061.131c.806.057,1.3-.238,1.351-.868Z" transform="translate(-156.472 -42.594)" fill="#e0e0e0"/>
      <path id="Path_10597" data-name="Path 10597" d="M239.9,59.249l-.045.363-2.837-.346.494-4.006,2.747.335-.045.369L237.9,55.68l-.176,1.43,2.071.255-.045.357-2.071-.255-.187,1.487Z" transform="translate(-159.621 -42.975)" fill="#e0e0e0"/>
      <path id="Path_10598" data-name="Path 10598" d="M243.526,58.161a2.032,2.032,0,0,1,2.355-1.782,1.958,1.958,0,0,1,1.39.766l-.3.238a1.583,1.583,0,0,0-1.135-.624,1.674,1.674,0,1,0-.414,3.32,1.578,1.578,0,0,0,1.248-.335l.233.306a1.975,1.975,0,0,1-1.544.4,2.032,2.032,0,0,1-1.833-2.293Z" transform="translate(-162.427 -43.446)" fill="#e0e0e0"/>
      <path id="Path_10599" data-name="Path 10599" d="M253.871,60.946l-.045.369L251,60.946l.494-4.006,2.746.34-.045.363-2.327-.284-.176,1.424,2.071.255-.04.363-2.071-.255-.187,1.487Z" transform="translate(-165.668 -43.701)" fill="#e0e0e0"/>
      <path id="Path_10600" data-name="Path 10600" d="M258.229,57.81l.42.057-.494,4.023-.426-.057Z" transform="translate(-168.579 -44.078)" fill="#e0e0e0"/>
      <path id="Path_10601" data-name="Path 10601" d="M264.242,59.949c-.108.857-.789,1.294-1.8,1.169l-1.078-.136-.153,1.265-.426-.051.494-4.006,1.5.187C263.793,58.5,264.349,59.092,264.242,59.949Zm-.426-.051c.079-.641-.3-1.055-1.1-1.135l-1.061-.131-.25,2,1.067.131C263.271,60.846,263.742,60.528,263.816,59.9Z" transform="translate(-169.898 -44.242)" fill="#e0e0e0"/>
      <path id="Path_10602" data-name="Path 10602" d="M268.777,59.449l-1.407-.176.045-.363,3.24.4-.045.369-1.407-.148-.448,3.643-.426-.057Z" transform="translate(-172.749 -44.553)" fill="#e0e0e0"/>
      <path id="Path_10603" data-name="Path 10603" d="M240.492,76.772c0,.085-5.362-.567-11.945-1.475s-11.917-1.7-11.917-1.77,5.357.567,11.917,1.475S240.5,76.693,240.492,76.772Z" transform="translate(-150.801 -50.873)" fill="#e0e0e0"/>
      <path id="Path_10604" data-name="Path 10604" d="M239.373,85.192c0,.085-5.357-.567-11.917-1.475s-11.917-1.7-11.917-1.77,5.357.567,11.917,1.475S239.385,85.113,239.373,85.192Z" transform="translate(-150.33 -54.515)" fill="#e0e0e0"/>
      <path id="Path_10605" data-name="Path 10605" d="M235.523,93.777c0,.079-5.357-.567-11.917-1.475s-11.917-1.7-11.917-1.776,5.351.567,11.917,1.481S235.535,93.7,235.523,93.777Z" transform="translate(-148.665 -58.226)" fill="#e0e0e0"/>
      <path id="Path_10606" data-name="Path 10606" d="M228.492,102.442c0,.085-5.357-.567-11.945-1.475s-11.917-1.7-11.917-1.77,5.357.567,11.945,1.475S228.5,102.363,228.492,102.442Z" transform="translate(-145.611 -61.977)" fill="#e0e0e0"/>
      <path id="Path_10607" data-name="Path 10607" d="M217.343,111.088c0,.079-5.357-.567-11.917-1.481s-11.917-1.7-11.917-1.77,5.357.567,11.917,1.481S217.355,111,217.343,111.088Z" transform="translate(-140.801 -65.714)" fill="#e0e0e0"/>
      <path id="Path_10608" data-name="Path 10608" d="M273.072,81.338a29.769,29.769,0,0,1-5.822-.948,15.1,15.1,0,0,1,2.939.329A14.789,14.789,0,0,1,273.072,81.338Z" transform="translate(-172.697 -53.844)" fill="#e0e0e0"/>
      <path id="Path_10609" data-name="Path 10609" d="M272.725,88.852a15.1,15.1,0,0,1-2.922-.323,14.789,14.789,0,0,1-2.883-.619,14.1,14.1,0,0,1,2.934.329,15.044,15.044,0,0,1,2.871.613Z" transform="translate(-172.554 -57.097)" fill="#e0e0e0"/>
      <path id="Path_10610" data-name="Path 10610" d="M270.162,99.253a15.2,15.2,0,0,1-2.939-.34,18.018,18.018,0,0,1-2.883-.607,12.6,12.6,0,0,1,2.934.312A14.755,14.755,0,0,1,270.162,99.253Z" transform="translate(-171.438 -61.58)" fill="#e0e0e0"/>
      <path id="Path_10611" data-name="Path 10611" d="M266.482,108a15.2,15.2,0,0,1-2.939-.34,18.2,18.2,0,0,1-2.883-.607,12.6,12.6,0,0,1,2.934.312A14.634,14.634,0,0,1,266.482,108Z" transform="translate(-169.846 -65.365)" fill="#e0e0e0"/>
      <path id="Path_10612" data-name="Path 10612" d="M258.562,116.353a15.156,15.156,0,0,1-2.939-.34,17.3,17.3,0,0,1-2.883-.607,12.384,12.384,0,0,1,2.928.318,15.019,15.019,0,0,1,2.894.63Z" transform="translate(-166.42 -68.976)" fill="#e0e0e0"/>
      <path id="Path_10613" data-name="Path 10613" d="M198.707,120.264c0,.079-8.035-.987-17.92-2.389s-17.9-2.6-17.886-2.678,8.035.987,17.926,2.389S198.707,120.19,198.707,120.264Z" transform="translate(-127.561 -68.898)" fill="#e0e0e0"/>
      <path id="Path_10614" data-name="Path 10614" d="M189.243,128.333a3.442,3.442,0,0,1-.4-.034l-1.135-.148-4.142-.607-13.653-2.1c-5.328-.84-10.146-1.623-13.619-2.207l-4.125-.709c-.488-.091-.863-.159-1.135-.216a1.753,1.753,0,0,1-.386-.1,2.531,2.531,0,0,1,.4.045l1.135.159,4.142.619,13.653,2.117,13.619,2.19,4.125.7,1.135.2a1.589,1.589,0,0,1,.386.091Z" transform="translate(-122.262 -71.933)" fill="#e0e0e0"/>
      <path id="Path_10615" data-name="Path 10615" d="M176.605,136.6a6.662,6.662,0,0,1-1.475-.131c-.959-.125-2.349-.318-4.069-.567-3.433-.494-8.171-1.214-13.4-2.031s-9.965-1.583-13.386-2.151l-4.052-.681-1.1-.2a1.731,1.731,0,0,1-.38-.091,1.64,1.64,0,0,1,.386.034l1.107.142,4.069.567,13.4,2.06,13.386,2.122Z" transform="translate(-117.115 -75.622)" fill="#e0e0e0"/>
      <path id="Path_10616" data-name="Path 10616" d="M245.352,128.253a15.2,15.2,0,0,1-2.939-.34,18.2,18.2,0,0,1-2.883-.607,12.6,12.6,0,0,1,2.934.312,14.51,14.51,0,0,1,2.888.636Z" transform="translate(-160.707 -74.123)" fill="#e0e0e0"/>
      <path id="Path_10617" data-name="Path 10617" d="M235.162,133.913a15.2,15.2,0,0,1-2.939-.34,18.2,18.2,0,0,1-2.883-.607,12.6,12.6,0,0,1,2.934.312A14.51,14.51,0,0,1,235.162,133.913Z" transform="translate(-156.299 -76.572)" fill="#e0e0e0"/>
      <path id="Path_10618" data-name="Path 10618" d="M221.442,143.463a15.2,15.2,0,0,1-2.939-.34,17.473,17.473,0,0,1-2.883-.607,12.441,12.441,0,0,1,2.934.318A14.754,14.754,0,0,1,221.442,143.463Z" transform="translate(-150.365 -80.702)" fill="#e0e0e0"/>
      <path id="Path_10619" data-name="Path 10619" d="M165.922,154.1c0,.085-9.936-1.379-22.131-3.257s-22.131-3.473-22.131-3.552,9.931,1.379,22.131,3.263S165.933,154.018,165.922,154.1Z" transform="translate(-109.723 -82.779)" fill="#e0e0e0"/>
      <path id="Path_10620" data-name="Path 10620" d="M178.152,176.427c0,.079-3.269-.38-7.263-1.027s-7.229-1.237-7.218-1.317,3.269.38,7.263,1.027S178.163,176.342,178.152,176.427Z" transform="translate(-127.894 -94.367)" fill="#e0e0e0"/>
    </g>
    <g id="freepik--Floor--inject-25" transform="translate(34.59 277.549)">
      <path id="Path_10621" data-name="Path 10621" d="M279.062,463.638c0,.085-54.731.148-122.23.148s-122.242-.062-122.242-.148,54.72-.148,122.242-.148S279.062,463.558,279.062,463.638Z" transform="translate(-34.59 -463.49)" fill="#263238"/>
    </g>
    <g id="freepik--Character--inject-25" transform="translate(36.006 74.883)">
      <path id="Path_10622" data-name="Path 10622" d="M135.417,124.52l.045,2.27s.925,17.591.868,20.236-8.881,17.733-8.881,17.733l5.419,8.835,12.938-23.266-3.1-24.968-.079-.619" transform="translate(-76.171 -114.206)" fill="#ffbe9d"/>
      <path id="Path_10623" data-name="Path 10623" d="M146.552,114.847l-1.742-6.407L138,112.378a49.679,49.679,0,0,0,2.037,5.187l1.18,1.226s5.919-.624,6.043-.687A27.41,27.41,0,0,0,146.552,114.847Z" transform="translate(-80.735 -107.25)" fill="#ffbe9d"/>
      <path id="Path_10624" data-name="Path 10624" d="M149,108.582a.5.5,0,0,1,.068.136c.261.692,1.021,3.819.675,4.052s-1.515.289-1.7-.1-.834-3.972-.834-3.972-.068-.567.828-.948C148.594,107.532,149,108.582,149,108.582Z" transform="translate(-84.718 -106.938)" fill="#ffbe9d"/>
      <path id="Path_10625" data-name="Path 10625" d="M145.2,107.461a.513.513,0,0,1,.068.131c.261.7,1.021,3.819.675,4.052s-1.515.289-1.7-.1-.834-3.972-.834-3.972-.062-.567.828-.942C144.794,106.405,145.2,107.461,145.2,107.461Z" transform="translate(-83.074 -106.453)" fill="#ffbe9d"/>
      <path id="Path_10626" data-name="Path 10626" d="M141.728,107.341a.329.329,0,0,1,.068.136c.261.692,1.016,3.819.67,4.052s-1.509.289-1.7-.1-.834-3.972-.834-3.972-.068-.567.828-.942C141.319,106.268,141.728,107.341,141.728,107.341Z" transform="translate(-81.569 -106.401)" fill="#ffbe9d"/>
      <path id="Path_10627" data-name="Path 10627" d="M138.288,107.2a.329.329,0,0,1,.068.136c.261.692,1.016,3.819.67,4.052s-1.515.289-1.7-.1-.834-3.972-.834-3.972-.068-.567.828-.942C137.879,106.149,138.288,107.2,138.288,107.2Z" transform="translate(-80.081 -106.344)" fill="#ffbe9d"/>
      <path id="Path_10628" data-name="Path 10628" d="M147.735,112.522a12.333,12.333,0,0,0-.675-3.042,12.331,12.331,0,0,0,.675,3.042Z" transform="translate(-84.654 -107.7)" fill="#eb996e"/>
      <path id="Path_10629" data-name="Path 10629" d="M144.278,112.372a11.842,11.842,0,0,0-.38-2.2,11.6,11.6,0,0,0-.567-2.156,13.2,13.2,0,0,0,.38,2.2,12.966,12.966,0,0,0,.567,2.156Z" transform="translate(-83.04 -107.069)" fill="#eb996e"/>
      <g id="Group_8933" data-name="Group 8933" transform="translate(58.4 1.275)" opacity="0.78">
        <path id="Path_10630" data-name="Path 10630" d="M140.948,112.948a13.218,13.218,0,0,0-.38-2.2A12.966,12.966,0,0,0,140,108.59a11.915,11.915,0,0,0,.38,2.2A11.774,11.774,0,0,0,140.948,112.948Z" transform="translate(-140 -108.59)" fill="#eb996e"/>
      </g>
      <path id="Path_10631" data-name="Path 10631" d="M141.359,118.281l-2.066-1.668a4.5,4.5,0,0,1-1.64-2.934l-.113-.88,6.242-1.26s0,2.321-1.759,2.349l2.2,1.135Z" transform="translate(-80.536 -108.591)" fill="#ffbe9d"/>
      <path id="Path_10632" data-name="Path 10632" d="M143.949,115.317a6.461,6.461,0,0,0-.539-.6,2.894,2.894,0,0,0-1.9-.766h-.67l.63-.233,1.441-.533h0a1.7,1.7,0,0,0,.9-1.612.85.85,0,0,0-.028-.148l.176.1c-1.742.431-3.32.794-4.472.993-.567.1-1.044.165-1.373.2a1.8,1.8,0,0,1-.505,0,18.126,18.126,0,0,1,1.833-.431c1.135-.244,2.7-.641,4.443-1.072l.136-.034.04.131a1.412,1.412,0,0,1,.045.2,1.753,1.753,0,0,1-.267,1.135,2.48,2.48,0,0,1-.777.743h0l-1.458.5-.04-.238a2.9,2.9,0,0,1,2,.914,1.515,1.515,0,0,1,.386.755Z" transform="translate(-80.566 -108.436)" fill="#eb996e"/>
      <path id="Path_10633" data-name="Path 10633" d="M148.1,111.329c.051,0,.153.284.471.567a.533.533,0,0,0,.619.091.811.811,0,0,0,.278-.772c-.074-.7-.113-1.362-.176-1.816a3.06,3.06,0,0,1-.1-.76c.045-.017.176.25.3.721a13.978,13.978,0,0,1,.267,1.839,1.044,1.044,0,0,1-.431,1.021.755.755,0,0,1-.9-.165,1.362,1.362,0,0,1-.3-.511C148.1,111.414,148.087,111.341,148.1,111.329Z" transform="translate(-85.102 -107.336)" fill="#eb996e"/>
      <path id="Path_10634" data-name="Path 10634" d="M106.846,149.655a5.363,5.363,0,0,1,3.972,1.929c1.061,1.1,1.844,2.406,2.928,3.467a9.812,9.812,0,0,1,2.27,2.485c.777,1.623.125,3.717,1.135,5.226.567.846,1.526,1.345,2.1,2.179a5.347,5.347,0,0,1,.5,3.683,4.3,4.3,0,0,1-.891,2.44,4.2,4.2,0,0,1-1.788.987,25.536,25.536,0,0,1-15.321.329" transform="translate(-65.055 -125.075)" fill="#263238"/>
      <path id="Path_10635" data-name="Path 10635" d="M92.354,160.811a7.8,7.8,0,0,1,7.008-8.739,7.944,7.944,0,0,1,8.478,6.81,81.711,81.711,0,0,1,1,8.6c-.051,4.006-2.395,5.561-3.342,6.032a5.107,5.107,0,0,1-1.055.261h0v.028l.891,4.6a5.18,5.18,0,0,1-4.284,6.134c-3.008.46-5.374-1.873-5.833-4.886Z" transform="translate(-60.965 -126.113)" fill="#ffbe9d"/>
      <path id="Path_10636" data-name="Path 10636" d="M116.559,167.875c-.062.091-.567-.193-1.271-.091s-1.135.511-1.209.437,0-.187.21-.38a1.765,1.765,0,0,1,.953-.454,1.7,1.7,0,0,1,1.027.176C116.5,167.693,116.593,167.83,116.559,167.875Z" transform="translate(-70.376 -132.74)" fill="#263238"/>
      <path id="Path_10637" data-name="Path 10637" d="M105.932,170.177c-.068.091-.567-.193-1.271-.091s-1.135.511-1.214.443,0-.193.21-.38a1.7,1.7,0,0,1,.959-.454,1.651,1.651,0,0,1,1.027.17C105.87,170,105.966,170.132,105.932,170.177Z" transform="translate(-65.776 -133.737)" fill="#263238"/>
      <path id="Path_10638" data-name="Path 10638" d="M111.135,171.931a4.817,4.817,0,0,1,1.072-.358c.17-.045.329-.1.34-.221a.914.914,0,0,0-.193-.5l-.7-1.243A23.453,23.453,0,0,1,110,166.33a22.465,22.465,0,0,1,1.912,3.138c.238.437.465.857.687,1.254a1.038,1.038,0,0,1,.187.67.454.454,0,0,1-.25.3,1.27,1.27,0,0,1-.284.079,4.171,4.171,0,0,1-1.118.165Z" transform="translate(-68.624 -132.29)" fill="#263238"/>
      <path id="Path_10639" data-name="Path 10639" d="M108.97,189.707a10.884,10.884,0,0,1-6.14-.9s1.532,3.308,6.384,2.134Z" transform="translate(-65.522 -142.014)" fill="#eb996e"/>
      <path id="Path_10640" data-name="Path 10640" d="M110.41,178.9a1.231,1.231,0,0,0-1.135-.289,1.135,1.135,0,0,0-.709.522.726.726,0,0,0,.062.817.845.845,0,0,0,.925.1,2.69,2.69,0,0,0,.789-.647.8.8,0,0,0,.165-.227.221.221,0,0,0-.04-.25" transform="translate(-67.961 -137.587)" fill="#eb996e"/>
      <path id="Path_10641" data-name="Path 10641" d="M108.537,177.54c.108,0,.216.715.919,1.135s1.481.233,1.5.335-.153.17-.482.227a1.839,1.839,0,0,1-1.243-.244,1.589,1.589,0,0,1-.726-.965C108.429,177.739,108.486,177.546,108.537,177.54Z" transform="translate(-67.961 -137.139)" fill="#263238"/>
      <path id="Path_10642" data-name="Path 10642" d="M104.671,166.409c-.04.2-.732.2-1.515.42s-1.39.522-1.521.369c-.057-.068,0-.261.261-.477a2.729,2.729,0,0,1,2.31-.6C104.534,166.193,104.7,166.318,104.671,166.409Z" transform="translate(-64.997 -132.176)" fill="#263238"/>
      <path id="Path_10643" data-name="Path 10643" d="M115.505,164.159c-.1.17-.567.079-1.135.153s-1.021.255-1.135.108,0-.238.176-.414a1.663,1.663,0,0,1,.9-.386,1.578,1.578,0,0,1,.959.176C115.454,163.926,115.545,164.073,115.505,164.159Z" transform="translate(-70.003 -131.112)" fill="#263238"/>
      <path id="Path_10644" data-name="Path 10644" d="M110.448,156.2c-.828,1.265-3.456.482-5.045-.386a3.768,3.768,0,0,1-5.153-1.061,2.074,2.074,0,0,1-3.4-.528,4.16,4.16,0,0,1,.63-4.239,5.907,5.907,0,0,1,3.609-1.963,8.37,8.37,0,0,1,8.512,3.5,5.592,5.592,0,0,1,.88,4.682" transform="translate(-62.79 -124.305)" fill="#263238"/>
      <path id="Path_10645" data-name="Path 10645" d="M91.043,151.376c-2.979-.567-5.85,2.4-6.151,4.54-.516,3.688,0,4.148-.692,5.913-.437,1.135-1.952,2.327-2.548,3.513a7.145,7.145,0,0,0-.193,4.778c.375,1.135,1.912,4.33,1.912,4.33a42.387,42.387,0,0,0,6.69-.721,3.785,3.785,0,0,0,1.6-.749c.431-.392-.46-1.742-.375-2.315.233-1.634,1.453-2.582,1.135-4.194-.465-2.139-2.151-2.27-2.117-4.443,0-1.135,1.753-2.837,1.912-3.972s.828-5.164-1.135-6.651" transform="translate(-56.141 -125.791)" fill="#263238"/>
      <path id="Path_10646" data-name="Path 10646" d="M87.567,177.732s-.216-.25-.567-.7a9.794,9.794,0,0,1-1.317-2.094,6.929,6.929,0,0,1-.647-3.552A5.629,5.629,0,0,1,87,167.523c.613-.494,1.311-.868,1.907-1.368a3.751,3.751,0,0,0,1.243-1.85,12.262,12.262,0,0,0,.369-1.969,9.08,9.08,0,0,1,.335-1.674,2.922,2.922,0,0,1,1.492-1.827,2.446,2.446,0,0,1,.88-.182.658.658,0,0,0-.238-.034,1.765,1.765,0,0,0-.681.125A2.934,2.934,0,0,0,90.66,160.6a8.54,8.54,0,0,0-.38,1.7,11.781,11.781,0,0,1-.386,1.924,3.439,3.439,0,0,1-1.175,1.7c-.567.477-1.271.846-1.912,1.368a5.811,5.811,0,0,0-2.032,4.035,7.042,7.042,0,0,0,.715,3.654,9.08,9.08,0,0,0,1.407,2.083c.2.216.369.38.482.482A.925.925,0,0,0,87.567,177.732Z" transform="translate(-57.704 -128.955)" fill="#455a64"/>
      <path id="Path_10647" data-name="Path 10647" d="M124.133,175.915a1.336,1.336,0,0,0,.113-.159,4.991,4.991,0,0,0,.25-.5,5.334,5.334,0,0,0,.386-2.009,5.425,5.425,0,0,0-.834-2.917,12.735,12.735,0,0,0-1.135-1.4,3.74,3.74,0,0,1-.885-1.6c-.267-1.243.142-2.5.057-3.654a6.117,6.117,0,0,0-.817-2.922,5.05,5.05,0,0,0-1.385-1.5,4.863,4.863,0,0,0-.477-.289l-.176-.079a7.055,7.055,0,0,0,.567.448,5.215,5.215,0,0,1,1.288,1.521,6.078,6.078,0,0,1,.732,2.837,11.207,11.207,0,0,1-.108,1.759,6.049,6.049,0,0,0,.04,1.941,3.973,3.973,0,0,0,.942,1.7,13.54,13.54,0,0,1,1.135,1.368,5.289,5.289,0,0,1,.851,2.786,5.675,5.675,0,0,1-.3,1.975C124.241,175.671,124.11,175.9,124.133,175.915Z" transform="translate(-72.616 -129.068)" fill="#455a64"/>
      <path id="Path_10648" data-name="Path 10648" d="M105.66,148.83a13.851,13.851,0,0,1,1.918.108,6.985,6.985,0,0,1,3.972,2.145,8.688,8.688,0,0,1,1.912,4.137,11.036,11.036,0,0,1,.1,1.924,1.782,1.782,0,0,0,.108-.516,6.14,6.14,0,0,0,0-1.43,8.3,8.3,0,0,0-1.9-4.29,6.866,6.866,0,0,0-4.142-2.151,5.884,5.884,0,0,0-1.436,0A1.7,1.7,0,0,0,105.66,148.83Z" transform="translate(-66.746 -124.67)" fill="#455a64"/>
      <path id="Path_10649" data-name="Path 10649" d="M107.14,154.991a1.447,1.447,0,0,0,.062-.448,4.54,4.54,0,0,0-.131-1.237,5.107,5.107,0,0,0-6.384-3.757,4.579,4.579,0,0,0-1.135.482c-.25.159-.375.261-.363.278a8.814,8.814,0,0,1,1.549-.567,5.073,5.073,0,0,1,6.163,3.626,9.88,9.88,0,0,1,.238,1.623Z" transform="translate(-63.947 -124.946)" fill="#455a64"/>
      <path id="Path_10650" data-name="Path 10650" d="M83.643,210.227s1.963,4.472,1.85,6.588-2.139,8.994-2.139,8.994l24,2.241.108-5.55-.721-22.829,13.381-20.355L110,173.45l-9.845,13.364-2.491-.965-10.782,1.362v1.873l-.306.034a22.074,22.074,0,0,0-6.707,2.627,11.236,11.236,0,0,0-5.141,11.389c.437,2.724,1.288,6.032,2.922,7.944C80.789,214.744,83.643,210.227,83.643,210.227Z" transform="translate(-53.298 -135.37)" fill="#d00010"/>
      <path id="Path_10651" data-name="Path 10651" d="M83.84,211.834s-1.226-6.968-.885-7.473c.42-.6,5.465-2.764,5.538-2.542l1.107,7.661Z" transform="translate(-56.899 -147.633)" fill="#fafafa"/>
      <path id="Path_10652" data-name="Path 10652" d="M120.163,220.16l-.573,13.364h5.045V220.16Z" transform="translate(-72.772 -155.574)" fill="#fafafa"/>
      <path id="Path_10653" data-name="Path 10653" d="M105.336,231.9a1.248,1.248,0,0,1,.284,0h.868l3.32-.051h.1v.1c.034,3.206.051,8,.051,13.364v.148H104.61v-.148c.187-3.853.357-7.2.477-9.647.068-1.135.119-2.083.159-2.764a6.661,6.661,0,0,1,.051-.732.958.958,0,0,1,0-.238,2.1,2.1,0,0,1,0,.272v.76c0,.692-.045,1.634-.079,2.8-.085,2.4-.2,5.714-.34,9.533l-.142-.148h5.045l-.148.148c0-5.362,0-10.157.051-13.364l.1.1-3.246-.1h-.891Z" transform="translate(-66.292 -160.63)" fill="#fafafa"/>
      <path id="Path_10654" data-name="Path 10654" d="M136.123,197.822l-5.323-3.365,4.676-6.827,5.453,3.166Z" transform="translate(-77.62 -141.503)" fill="#fafafa"/>
      <g id="Group_8934" data-name="Group 8934" transform="translate(37.557 56.727)" opacity="0.4">
        <rect id="Rectangle_2063" data-name="Rectangle 2063" width="15.622" height="5.067" fill="#fff"/>
      </g>
      <path id="Path_10655" data-name="Path 10655" d="M129.561,221.715a1.329,1.329,0,0,1,0-.465c.04-.3.091-.732.136-1.26a23.51,23.51,0,0,0,0-4.165,23.13,23.13,0,0,0-.76-4.1c-.284-1.027-.516-1.651-.471-1.668s.1.136.216.414a12.286,12.286,0,0,1,.46,1.192,19.1,19.1,0,0,1,.851,4.131,18.517,18.517,0,0,1-.085,4.216,11.952,11.952,0,0,1-.233,1.254,1.464,1.464,0,0,1-.113.448Z" transform="translate(-76.608 -151.204)" fill="#263238"/>
      <path id="Path_10656" data-name="Path 10656" d="M138.149,177.36a7.586,7.586,0,0,1-.914,1.175c-.567.7-1.424,1.651-2.361,2.7l-1,1.1-.085.1-.1-.068c-.857-.567-1.589-1.1-2.1-1.464a3.893,3.893,0,0,1-.789-.636,4.778,4.778,0,0,1,.885.488c.539.329,1.294.806,2.162,1.373h-.182l.987-1.135c.936-1.044,1.793-1.969,2.423-2.633A7.87,7.87,0,0,1,138.149,177.36Z" transform="translate(-77.62 -137.061)" fill="#fafafa"/>
      <path id="Path_10657" data-name="Path 10657" d="M145.533,181.6a9.7,9.7,0,0,1-1.572-.726c-.959-.482-2.27-1.175-3.706-1.946s-2.729-1.492-3.66-2.02a10.64,10.64,0,0,1-1.475-.914,9.858,9.858,0,0,1,1.578.726c.953.488,2.27,1.175,3.7,1.946s2.729,1.492,3.66,2.02A10.218,10.218,0,0,1,145.533,181.6Z" transform="translate(-79.489 -136.469)" fill="#263238"/>
      <path id="Path_10658" data-name="Path 10658" d="M52.7,431.12l-2.571,11.622-4.687,8.614a1.22,1.22,0,0,0,.567,1.7h0a1.214,1.214,0,0,0,1.135-.051c2.179-1.26,10.175-5.936,10.316-6.81.165-1,3.53-12.087,3.53-12.087Z" transform="translate(-40.635 -246.823)" fill="#d00010"/>
      <g id="Group_8935" data-name="Group 8935" transform="translate(5.371 198.597)" opacity="0.6">
        <path id="Path_10659" data-name="Path 10659" d="M46.55,463.947l11.6-7.627-.119.488a1.867,1.867,0,0,1-.687,1.033c-.948.681-3.6,2.514-9.647,6.043a1.22,1.22,0,0,1-1.135.04Z" transform="translate(-46.55 -456.32)" fill="#fff"/>
      </g>
      <g id="Group_8936" data-name="Group 8936" transform="translate(15.084 194.249)" opacity="0.6">
        <path id="Path_10660" data-name="Path 10660" d="M64.122,448.693a.738.738,0,0,0-.426.891.7.7,0,0,0,.874.426.777.777,0,0,0,.448-.942.743.743,0,0,0-.965-.346" transform="translate(-63.666 -448.658)" fill="#fff"/>
      </g>
      <path id="Path_10661" data-name="Path 10661" d="M51.82,460.653a3.631,3.631,0,0,0-.789-1.135,3.7,3.7,0,0,0-1.271-.568c0-.034.165-.085.448-.057a1.912,1.912,0,0,1,.987.437,1.867,1.867,0,0,1,.607.9C51.877,460.471,51.854,460.653,51.82,460.653Z" transform="translate(-42.567 -258.833)" fill="#263238"/>
      <path id="Path_10662" data-name="Path 10662" d="M49.752,463.427c-.068.034-.346-.431-.9-.749a9.151,9.151,0,0,0-1.09-.42,1.356,1.356,0,0,1,1.226.193C49.6,462.82,49.82,463.41,49.752,463.427Z" transform="translate(-41.702 -260.262)" fill="#263238"/>
      <path id="Path_10663" data-name="Path 10663" d="M54.764,457.581a13.057,13.057,0,0,0-1.317-1.248,12.406,12.406,0,0,0-1.617-.823,3.348,3.348,0,0,1,2.934,2.071Z" transform="translate(-43.463 -257.373)" fill="#263238"/>
      <path id="Path_10664" data-name="Path 10664" d="M56.575,452.279c-.045.062-.619-.363-1.441-.6s-1.532-.2-1.543-.272a2.9,2.9,0,0,1,2.985.868Z" transform="translate(-44.224 -255.538)" fill="#263238"/>
      <path id="Path_10665" data-name="Path 10665" d="M57.961,446.317a5.973,5.973,0,0,0-1.492-.664,6.013,6.013,0,0,0-1.629,0c0-.028.153-.142.454-.233a2.644,2.644,0,0,1,1.231-.034,2.707,2.707,0,0,1,1.135.522C57.882,446.124,57.984,446.278,57.961,446.317Z" transform="translate(-44.765 -252.969)" fill="#263238"/>
      <path id="Path_10666" data-name="Path 10666" d="M56.853,443.069a.925.925,0,0,1,.091-.437,3.109,3.109,0,0,1,.63-1.061,1.368,1.368,0,0,1,.738-.505.5.5,0,0,1,.511.238.823.823,0,0,1,.051.567,1.7,1.7,0,0,1-1.844,1.192,2,2,0,0,1-1.663-1.487.715.715,0,0,1,.108-.567.471.471,0,0,1,.567-.125,1.731,1.731,0,0,1,.664.567,3.547,3.547,0,0,1,.567,1.1,1.01,1.01,0,0,1,.079.443,5.352,5.352,0,0,0-.794-1.419,1.5,1.5,0,0,0-.567-.494.244.244,0,0,0-.3.068.454.454,0,0,0-.045.375,1.782,1.782,0,0,0,1.453,1.271,1.492,1.492,0,0,0,1.583-.987.567.567,0,0,0,0-.4.261.261,0,0,0-.278-.136,1.231,1.231,0,0,0-.63.414,4.608,4.608,0,0,0-.919,1.385Z" transform="translate(-44.984 -251.026)" fill="#263238"/>
      <g id="Group_8937" data-name="Group 8937" transform="translate(11.42 184.297)" opacity="0.3">
        <path id="Path_10667" data-name="Path 10667" d="M57.556,432.38l-.346,1.657,8.211,2.406.7-2.327-8.268-3Z" transform="translate(-57.21 -431.12)"/>
      </g>
      <path id="Path_10668" data-name="Path 10668" d="M117.4,438.415l-.7,9.289s9.21,3.825,9.25,5.555l-18.062-.7.488-14.521Z" transform="translate(-67.711 -249.816)" fill="#d00010"/>
      <g id="Group_8938" data-name="Group 8938" transform="translate(42.889 196.889)" opacity="0.6">
        <path id="Path_10669" data-name="Path 10669" d="M113.213,453.31a.738.738,0,0,0-.539.823.709.709,0,0,0,.806.567.777.777,0,0,0,.567-.874.743.743,0,0,0-.908-.477" transform="translate(-112.665 -453.31)" fill="#fff"/>
      </g>
      <g id="Group_8939" data-name="Group 8939" transform="translate(40.179 201.281)" opacity="0.6">
        <path id="Path_10670" data-name="Path 10670" d="M107.89,462.514,108,461.05l17.279,1.22s.789.38.675.942Z" transform="translate(-107.89 -461.05)" fill="#fff"/>
      </g>
      <path id="Path_10671" data-name="Path 10671" d="M122.658,454.868c0,.085-.448.108-.891.375s-.692.63-.772.6.074-.568.619-.857S122.692,454.788,122.658,454.868Z" transform="translate(-73.371 -257.06)" fill="#263238"/>
      <path id="Path_10672" data-name="Path 10672" d="M126.278,456.408c0,.085-.369.221-.687.568s-.414.749-.505.743-.119-.511.278-.948S126.278,456.323,126.278,456.408Z" transform="translate(-75.125 -257.743)" fill="#263238"/>
      <path id="Path_10673" data-name="Path 10673" d="M128.929,459.374c-.079,0-.187-.431.057-.9s.67-.653.7-.568-.233.323-.426.715S129,459.369,128.929,459.374Z" transform="translate(-76.77 -258.4)" fill="#263238"/>
      <path id="Path_10674" data-name="Path 10674" d="M122.376,450.9c-.04.079-.443-.062-.942-.045s-.891.159-.936.079.34-.38.931-.386S122.421,450.834,122.376,450.9Z" transform="translate(-73.162 -255.227)" fill="#263238"/>
      <g id="Group_8940" data-name="Group 8940" transform="translate(40.554 189.756)" opacity="0.3">
        <path id="Path_10675" data-name="Path 10675" d="M117.544,441.421l-.119,1.657-8.875-.426.057-1.912Z" transform="translate(-108.55 -440.74)"/>
      </g>
      <path id="Path_10676" data-name="Path 10676" d="M121.944,446.683a1.7,1.7,0,0,1-.908-.04,4.141,4.141,0,0,1-.936-.329,4.3,4.3,0,0,1-.505-.3,1.022,1.022,0,0,1-.267-.221.38.38,0,0,1,0-.471.477.477,0,0,1,.4-.187,1.135,1.135,0,0,1,.335.057,3.237,3.237,0,0,1,.567.216,3.144,3.144,0,0,1,.811.567c.4.409.533.743.505.76s-.233-.261-.647-.6a3.825,3.825,0,0,0-.794-.488,3.406,3.406,0,0,0-.511-.176c-.187-.062-.352-.068-.4,0s0,.045,0,.1a.822.822,0,0,0,.193.159,4.222,4.222,0,0,0,.465.3,5.225,5.225,0,0,0,.863.369A6.073,6.073,0,0,1,121.944,446.683Z" transform="translate(-72.623 -252.887)" fill="#263238"/>
      <path id="Path_10677" data-name="Path 10677" d="M123.62,445.9a1.447,1.447,0,0,1-.2-.88,3.013,3.013,0,0,1,.165-.987,2.837,2.837,0,0,1,.25-.539.76.76,0,0,1,.567-.437.426.426,0,0,1,.369.267,1.18,1.18,0,0,1,.079.335,2.191,2.191,0,0,1,0,.613,2.128,2.128,0,0,1-.426.919c-.369.454-.743.567-.749.516a4.542,4.542,0,0,0,.567-.647,2.218,2.218,0,0,0,.318-.84,1.788,1.788,0,0,0,0-.522c0-.193-.085-.352-.159-.335a.656.656,0,0,0-.323.284,2.75,2.75,0,0,0-.244.482,3.319,3.319,0,0,0-.21.9C123.592,445.557,123.671,445.892,123.62,445.9Z" transform="translate(-74.424 -251.988)" fill="#263238"/>
      <path id="Path_10678" data-name="Path 10678" d="M80.617,209.449l4.67.261a23.42,23.42,0,0,0,1.322,3.83,77.749,77.749,0,0,0,7.405-18.794c-.108-.352-.233-.738-.386-1.175a4.942,4.942,0,0,1,.057-1.975c.131-.783.346-1.839.414-2.327.2-1.487.437-1.7.959-1.549.7.227-.289,4.171.284,4.256.312.045.692-1.305.8-2.412s.613-4.54.982-4.75c.567-.335,1,.193.868,1.3s-.312,4.449.278,4.494S99.332,185,99.332,185s-.091-1.226.567-1.2c1.226.051.267,6.015.165,6.577-.074.392.567.465.619.04s.352-5.675,1.6-5.612c.953.034-.743,4.914-.2,6.043s.908-3.842,1.822-3.774c.34,0,.567.091-.034,2.905a63.072,63.072,0,0,1-2.185,6.6c-1.447,7.8-7.8,32.765-17.75,28.2-5.572-2.559-8.171-15.219-8.171-15.219Z" transform="translate(-53.813 -139.846)" fill="#ffbe9d"/>
      <path id="Path_10679" data-name="Path 10679" d="M115.2,196.423a.715.715,0,0,1,.051-.17c.04-.125.1-.289.165-.488.153-.454.375-1.084.653-1.884s.619-1.822.959-3a19.565,19.565,0,0,0,.443-1.912c.062-.34.131-.692.17-1.055a3.4,3.4,0,0,0,0-.539c0-.187-.04-.335-.187-.34s-.255.085-.357.244a2.985,2.985,0,0,0-.238.528c-.131.375-.238.772-.34,1.18s-.2.828-.323,1.254a1.929,1.929,0,0,1-.284.658.227.227,0,0,1-.312.04.567.567,0,0,1-.131-.182,1.453,1.453,0,0,1-.1-.363,12.069,12.069,0,0,1,.284-2.837c.085-.477.17-.959.233-1.447a6.458,6.458,0,0,0,.057-.738c0-.221,0-.528-.131-.567s-.34.091-.454.3a2.94,2.94,0,0,0-.312.675,10.822,10.822,0,0,0-.369,1.521c-.091.528-.159,1.061-.221,1.6a7.385,7.385,0,0,1-.079.817l-.034.414a.619.619,0,0,1-.187.477.477.477,0,0,1-.567,0,.409.409,0,0,1-.176-.267.453.453,0,0,1,0-.153v-.1c.04-.278.085-.567.125-.834q.119-.851.2-1.7t.1-1.7a5.754,5.754,0,0,0-.17-1.7.567.567,0,0,0-.238-.346.3.3,0,0,0-.323.1,1.566,1.566,0,0,0-.176.925h0c-.1,1.135-.227,2.219-.386,3.3a15.475,15.475,0,0,1-.306,1.606,3.564,3.564,0,0,1-.125.4.817.817,0,0,1-.267.409.3.3,0,0,1-.352-.074.658.658,0,0,1-.125-.216,1.986,1.986,0,0,1-.108-.409,15.133,15.133,0,0,1-.028-3.121,8.66,8.66,0,0,0,.074-1.458.789.789,0,0,0-.261-.539.289.289,0,0,0-.244-.04.466.466,0,0,0-.136.057.193.193,0,0,0-.068.079,6.924,6.924,0,0,0-.375,1.328c-.091.454-.17.908-.244,1.356s-.136.885-.193,1.322-.091.868-.176,1.294a6.469,6.469,0,0,1-.335,1.231,1.663,1.663,0,0,1-.136.289c-.068.091-.1.21-.284.267a.244.244,0,0,1-.244-.1.732.732,0,0,1-.074-.176,2.207,2.207,0,0,1-.04-.318c0-.811.113-1.555.153-2.27a5.215,5.215,0,0,0,0-1.033.358.358,0,0,0-.545-.369,1.373,1.373,0,0,0-.352.777c-.068.3-.1.567-.153.868-.2,1.135-.409,2.094-.505,2.883a3.655,3.655,0,0,0,0,1.05c.068.284.165.539.216.738l.136.465a.465.465,0,0,1,.04.159.567.567,0,0,1-.062-.153l-.165-.448c-.068-.2-.165-.437-.25-.749a3.728,3.728,0,0,1,0-1.072c.085-.806.278-1.765.46-2.894.051-.278.079-.567.148-.88a2.769,2.769,0,0,1,.125-.46.817.817,0,0,1,.3-.437.613.613,0,0,1,.567,0c.227.131.233.346.272.511a5.674,5.674,0,0,1,0,1.072c-.034.726-.148,1.487-.131,2.27a1.987,1.987,0,0,0,.034.272c0,.091.068.125.057.108s.091-.079.131-.153a2.788,2.788,0,0,0,.125-.261,7.048,7.048,0,0,0,.312-1.192c.079-.409.1-.84.165-1.277s.113-.885.187-1.334.148-.908.238-1.368a6.514,6.514,0,0,1,.4-1.407.42.42,0,0,1,.165-.182.873.873,0,0,1,.2-.085.567.567,0,0,1,.454.074,1.05,1.05,0,0,1,.392.726,2.967,2.967,0,0,1,0,.777c0,.244-.045.494-.062.743a15.2,15.2,0,0,0,0,3.047,2.122,2.122,0,0,0,.091.352.482.482,0,0,0,.074.125h0v.006a.931.931,0,0,0,.136-.261c.04-.119.079-.244.113-.369.125-.505.216-1.038.3-1.572.159-1.073.278-2.168.38-3.28h0a1.844,1.844,0,0,1,.238-1.135.567.567,0,0,1,.664-.193.811.811,0,0,1,.409.522,5.907,5.907,0,0,1,.187,1.793c0,.567-.051,1.169-.108,1.748s-.125,1.135-.2,1.7c-.04.284-.085.567-.125.84a.407.407,0,0,0,0,.238.21.21,0,0,0,.221,0c.062-.04.068-.125.079-.278l.04-.414c0-.272.057-.567.079-.817.062-.567.136-1.09.227-1.617a11.254,11.254,0,0,1,.38-1.566,3.36,3.36,0,0,1,.346-.738,1.135,1.135,0,0,1,.306-.318.454.454,0,0,1,.755.352,2.445,2.445,0,0,1,.028.4,6.742,6.742,0,0,1-.068.766c-.062.5-.153.982-.238,1.458a11.865,11.865,0,0,0-.3,2.758.9.9,0,0,0,.079.289.426.426,0,0,0,.057.1h0v-.028a1.9,1.9,0,0,0,.233-.567c.125-.414.221-.834.329-1.243s.216-.811.357-1.2a3.194,3.194,0,0,1,.261-.567.817.817,0,0,1,.216-.25.437.437,0,0,1,.17-.085.482.482,0,0,1,.182,0,.363.363,0,0,1,.3.221.925.925,0,0,1,.062.312,3.144,3.144,0,0,1-.034.567c-.04.375-.113.726-.182,1.073a18.243,18.243,0,0,1-.471,1.918c-.352,1.18-.709,2.179-1,2.991s-.567,1.447-.7,1.867c-.079.2-.148.357-.193.482A.451.451,0,0,0,115.2,196.423Z" transform="translate(-67.314 -139.696)" fill="#eb996e"/>
      <path id="Path_10680" data-name="Path 10680" d="M75.7,226.75c.9,3.189,2.667,8.115,4.54,13.313a.9.9,0,0,0,1.663.079l4.653-9.845s-1.135-8.086-1.027-7.8-9.6,1.05-9.6,1.05Z" transform="translate(-53.787 -156.581)" fill="#d00010"/>
      <path id="Path_10681" data-name="Path 10681" d="M95.168,226.637a1.089,1.089,0,0,0-.357-.159.885.885,0,0,0-.9.238l-.119.136-.074-.176c-.25-.636-.567-1.458-.885-2.366a28.174,28.174,0,0,1-1.22-3.83,26.534,26.534,0,0,1,1.5,3.734c.329.9.613,1.736.823,2.383l-.193-.034a.976.976,0,0,1,.619-.289,1.027,1.027,0,0,1,.5.079C95.111,226.45,95.179,226.626,95.168,226.637Z" transform="translate(-60.669 -155.712)" fill="#263238"/>
      <path id="Path_10682" data-name="Path 10682" d="M86.25,240.836a7.537,7.537,0,0,1,.675-1.4c.448-.84,1.084-2,1.81-3.263s1.39-2.406,1.884-3.223a8.212,8.212,0,0,1,.857-1.294,8.108,8.108,0,0,1-.675,1.4c-.448.846-1.09,2-1.81,3.269s-1.39,2.406-1.884,3.223a8.437,8.437,0,0,1-.857,1.288Z" transform="translate(-58.351 -160.548)" fill="#263238"/>
      <path id="Path_10683" data-name="Path 10683" d="M78.424,236.742a5.264,5.264,0,0,1,.811-.567c.528-.34,1.294-.817,2.224-1.385l-.051.153c-.516-1.209-1.135-2.622-1.77-4.142-.806-1.912-1.526-3.671-2.054-4.982l.159.051c-.738.4-1.339.721-1.753.936a3.37,3.37,0,0,1-.67.306,3.2,3.2,0,0,1,.607-.414c.4-.25.982-.6,1.7-1.016l.1-.062.051.113c.567,1.294,1.317,3.036,2.122,4.954.636,1.526,1.22,2.945,1.7,4.159l.04.1-.091.051c-.942.567-1.7.993-2.27,1.294A4.835,4.835,0,0,1,78.424,236.742Z" transform="translate(-53.623 -157.936)" fill="#fafafa"/>
      <path id="Path_10684" data-name="Path 10684" d="M87.132,362.878a3.331,3.331,0,0,0,3.229-3.127c.97-15.707,5.34-87.156,4.466-89.4-.987-2.52-3.581-11.281-3.581-11.281L68.077,258s-5.765,9.079-6.594,12.586c-.749,3.127-21.739,69.27-24.35,83.314a2.877,2.877,0,0,0,2,3.28Z" transform="translate(-37.085 -171.941)" fill="#263238"/>
      <path id="Path_10685" data-name="Path 10685" d="M74.828,258.87s-.028.085-.1.25l-.329.715L73.1,262.57c-.255.607-.533,1.282-.846,2.014s-.653,1.538-.959,2.417-.681,1.81-1.027,2.809-.67,2.066-1.033,3.183l-1.027,3.541c-.335,1.237-.653,2.531-1,3.87s-.63,2.735-.965,4.171-.636,2.917-.925,4.443c-.624,3.042-1.237,6.242-1.884,9.567s-1.339,6.753-2.151,10.248c-.392,1.748-.846,3.45-1.265,5.153s-.914,3.348-1.413,4.965c-.982,3.24-2.06,6.327-3.161,9.233-2.224,5.816-4.54,10.929-6.526,15.18s-3.728,7.644-4.92,9.987l-1.379,2.707c-.153.3-.278.528-.369.692a2.106,2.106,0,0,1-.131.233,2.115,2.115,0,0,1,.108-.244c.079-.17.193-.409.34-.709.312-.636.76-1.549,1.339-2.718,1.135-2.355,2.837-5.765,4.829-10.027s4.256-9.374,6.463-15.185c1.09-2.905,2.162-5.987,3.144-9.221.494-1.612.936-3.274,1.4-4.954s.874-3.4,1.254-5.158c.811-3.49,1.492-6.929,2.156-10.243s1.265-6.52,1.9-9.562c.3-1.526.641-3.008.948-4.443s.664-2.837.976-4.176.681-2.633,1.021-3.87.715-2.412,1.05-3.541l1.044-3.206c.352-1,.721-1.929,1.05-2.8s.664-1.7.987-2.412S72.74,263.1,73,262.5c.567-1.186,1.033-2.1,1.339-2.718l.357-.7Z" transform="translate(-39.263 -172.318)" fill="#455a64"/>
      <path id="Path_10686" data-name="Path 10686" d="M63.71,358.966a.918.918,0,0,1,.057-.255c.057-.17.119-.437.2-.755l.806-2.894c.7-2.531,1.7-6.163,2.951-10.646s2.684-9.857,4.245-15.821c.772-2.985,1.578-6.117,2.417-9.363s1.651-6.628,2.514-10.078,1.646-6.81,2.434-10.1,1.492-6.418,2.2-9.42c1.368-6.009,2.571-11.434,3.552-15.991s1.759-8.239,2.31-10.782c.267-1.265.477-2.27.624-2.939.074-.323.131-.567.17-.76a1.659,1.659,0,0,1,.068-.261,2.35,2.35,0,0,1-.04.267c-.034.182-.079.437-.142.766-.131.687-.323,1.7-.567,2.951l-.936,4.642c-.38,1.816-.806,3.881-1.282,6.163-.953,4.54-2.134,9.987-3.5,16.008-.687,3-1.4,6.163-2.179,9.425s-1.595,6.645-2.423,10.106-1.7,6.81-2.525,10.072-1.651,6.384-2.429,9.363c-1.583,5.964-3.047,11.349-4.307,15.809l-1.7,6.055c-.516,1.776-.965,3.308-1.328,4.54s-.658,2.207-.857,2.883c-.1.318-.176.567-.227.743A1.3,1.3,0,0,1,63.71,358.966Z" transform="translate(-48.601 -172.331)" fill="#455a64"/>
      <path id="Path_10687" data-name="Path 10687" d="M99.009,259a1.345,1.345,0,0,0,.04.261l.1.783c.04.346.091.772.148,1.265s.074,1.09.113,1.742c0,.329.04.675.057,1.038s0,.749,0,1.135v1.248c0,.431-.04.885-.057,1.351s-.045.948-.074,1.441-.091,1.01-.142,1.538c-.074,1.055-.255,2.156-.4,3.325-.352,2.321-.817,4.846-1.413,7.542s-1.294,5.555-2.02,8.569-1.481,6.18-2.105,9.488-1.135,6.758-1.6,10.305-.8,7-1.2,10.356-.738,6.588-1.135,9.647l-.613,4.494c-.238,1.447-.448,2.837-.687,4.222s-.482,2.667-.749,3.921-.533,2.451-.8,3.592-.567,2.219-.851,3.24-.6,1.963-.874,2.837c-.142.443-.267.874-.414,1.282s-.3.8-.431,1.175c-.278.743-.533,1.43-.766,2.043-.5,1.214-.936,2.134-1.209,2.769l-.329.715c-.074.159-.119.238-.119.238a.6.6,0,0,1,.091-.255c.091-.165.176-.414.3-.726.261-.636.675-1.566,1.135-2.781l.732-2.054.426-1.169c.142-.409.261-.845.4-1.288.267-.891.567-1.839.851-2.837l.828-3.234.783-3.592c.255-1.254.477-2.565.732-3.921s.437-2.769.664-4.216.4-2.951.6-4.489c.38-3.076.749-6.3,1.135-9.647s.743-6.809,1.2-10.379.987-7.008,1.612-10.328,1.39-6.486,2.122-9.494,1.447-5.873,2.049-8.557,1.078-5.209,1.447-7.525c.148-1.135.335-2.27.414-3.314.057-.522.1-1.033.153-1.526s.057-.976.085-1.441.062-.908.068-1.345,0-.846,0-1.243v-1.135c0-.357-.034-.7-.045-1.033-.034-.653-.034-1.237-.085-1.736s-.085-.925-.119-1.271-.051-.6-.068-.783a1.885,1.885,0,0,1,.023-.244Z" transform="translate(-56.287 -172.374)" fill="#455a64"/>
      <path id="Path_10688" data-name="Path 10688" d="M106.979,363.167a2.311,2.311,0,0,1-.062-.261c-.034-.187-.085-.443-.148-.772s-.136-.766-.227-1.265-.21-1.067-.267-1.7-.159-1.379-.255-2.173-.113-1.668-.182-2.6c0-.465-.057-.953-.074-1.447s0-1.016,0-1.549v-1.634c0-.562.045-1.135.062-1.7s.051-1.192.074-1.8.1-1.243.148-1.884c.085-1.282.25-2.6.409-3.972s.386-2.786.567-4.245.477-2.951.772-4.477c1.135-6.123,2.667-12.779,4.086-19.8a198.9,198.9,0,0,0,2.979-19.98c.613-6.185.846-11.775.925-16.456V269.1c0-1.861-.079-3.473-.136-4.789s-.108-2.332-.136-3.025V260.5c0,.176.034.454.062.789.045.687.131,1.7.187,3.019s.136,2.922.187,4.789.068,3.972.057,6.344c-.051,4.7-.267,10.305-.863,16.5a196,196,0,0,1-2.962,20.014c-1.419,7.036-2.979,13.687-4.108,19.8-.3,1.521-.528,3.019-.783,4.466s-.448,2.866-.6,4.239-.335,2.69-.42,3.972c-.057.636-.108,1.26-.159,1.873s-.057,1.214-.085,1.8-.045,1.163-.074,1.7v3.172c0,.494.045.976.068,1.441.057.931.057,1.8.153,2.593s.159,1.521.227,2.179.165,1.226.238,1.7l.2,1.265c.051.329.085.567.119.777S106.979,363.167,106.979,363.167Z" transform="translate(-66.788 -172.906)" fill="#455a64"/>
      <path id="Path_10689" data-name="Path 10689" d="M125.917,259.79s.028.085.079.255l.221.749.346,1.231a17.156,17.156,0,0,1,.4,1.7c.125.641.3,1.351.426,2.139s.233,1.646.363,2.571.153,1.918.238,2.973.085,2.168.062,3.342a71.172,71.172,0,0,1-.494,7.644c-.3,2.741-.772,5.646-1.317,8.688l-1.782,9.545c-.624,3.308-1.169,6.747-1.663,10.282s-.9,6.991-1.226,10.339-.567,6.588-.76,9.675-.312,6.021-.369,8.773-.091,5.311-.079,7.649.045,4.455.1,6.31.125,3.456.176,4.761.113,2.31.148,3.008a6.863,6.863,0,0,0,.034.783v.272a1.578,1.578,0,0,0-.034-.267l-.062-.783c-.045-.687-.125-1.7-.2-3.008s-.17-2.905-.227-4.761-.119-3.972-.148-6.316,0-4.9.045-7.655.176-5.675.34-8.784.409-6.333.743-9.687.721-6.809,1.226-10.356,1.038-6.98,1.668-10.288l1.8-9.539c.567-3.042,1-5.947,1.339-8.671a71.094,71.094,0,0,0,.528-7.621c0-1.169-.034-2.27-.04-3.331s-.148-2.037-.216-2.962-.233-1.776-.335-2.565-.284-1.492-.4-2.139a16.649,16.649,0,0,0-.375-1.7c-.142-.494-.233-.891-.318-1.231s-.148-.567-.193-.76A2.075,2.075,0,0,1,125.917,259.79Z" transform="translate(-73.01 -172.716)" fill="#455a64"/>
    </g>
    <g id="freepik--Icons--inject-25" transform="translate(193.405 73.743)">
      <rect id="Rectangle_2064" data-name="Rectangle 2064" width="65.042" height="61.688" rx="6.79" transform="translate(0 9.097) rotate(-8.04)" fill="#d00010"/>
      <ellipse id="Ellipse_581" data-name="Ellipse 581" cx="12.838" cy="12.838" rx="12.838" ry="12.838" transform="translate(24.096 36.306) rotate(-56.52)" fill="#fafafa"/>
      <path id="Path_10694" data-name="Path 10694" d="M404.107,139.36a12.431,12.431,0,0,1-1.357,2.319c-.9,1.368-2.18,3.224-3.618,5.265l-1.542,2.169-.162.232-.232-.151a41.1,41.1,0,0,1-5.2-3.7,42.2,42.2,0,0,1,5.508,3.212l-.394.07,1.531-2.18c1.438-2.041,2.772-3.862,3.757-5.172A11.764,11.764,0,0,1,404.107,139.36Z" transform="translate(-356.012 -112.411)" fill="#f195ee"/>
      <rect id="Rectangle_2065" data-name="Rectangle 2065" width="52.694" height="49.976" rx="6.79" transform="matrix(0.97, 0.244, -0.244, 0.97, 18.334, 71.435)" fill="#455a64"/>
      <g id="Group_9320" data-name="Group 9320" transform="translate(-92.329 -70.475) rotate(14)">
        <circle id="Ellipse_632" data-name="Ellipse 632" cx="7.887" cy="7.887" r="7.887" transform="translate(160.786 126.887)" fill="#d00010"/>
        <g id="Icon_feather-wifi" data-name="Icon feather-wifi" transform="translate(186.347 123.445) rotate(90)">
          <path id="Path_11844" data-name="Path 11844" d="M0,2.769a11.953,11.953,0,0,1,15.3,0" transform="translate(3.89 5.433)" fill="none" stroke="#d00010" stroke-linecap="round" stroke-linejoin="round" stroke-width="3"/>
          <path id="Path_11845" data-name="Path 11845" d="M0,4.344a17.387,17.387,0,0,1,22.994,0" transform="translate(0 0)" fill="none" stroke="#d00010" stroke-linecap="round" stroke-linejoin="round" stroke-width="3"/>
          <path id="Path_11847" data-name="Path 11847" d="M0,0" transform="translate(11.454 13.814)" fill="none" stroke="#d00010" stroke-linecap="round" stroke-linejoin="round" stroke-width="3"/>
        </g>
        <g id="Icon_feather-wifi-2" data-name="Icon feather-wifi" transform="translate(164.854 123.445) rotate(90)">
          <path id="Path_11844-2" data-name="Path 11844" d="M0,0A11.953,11.953,0,0,0,15.3,0" transform="translate(3.89 5.613)" fill="none" stroke="#d00010" stroke-linecap="round" stroke-linejoin="round" stroke-width="3"/>
          <path id="Path_11845-2" data-name="Path 11845" d="M0,0A17.387,17.387,0,0,0,22.994,0" transform="translate(0 9.47)" fill="none" stroke="#d00010" stroke-linecap="round" stroke-linejoin="round" stroke-width="3"/>
          <path id="Path_11847-2" data-name="Path 11847" d="M0,0" transform="translate(11.454 0)" fill="none" stroke="#d00010" stroke-linecap="round" stroke-linejoin="round" stroke-width="3"/>
        </g>
        <path id="Rectangle_2193" data-name="Rectangle 2193" d="M5.047,0h14.2a0,0,0,0,1,0,0V0A5.047,5.047,0,0,1,14.2,5.047H0a0,0,0,0,1,0,0v0A5.047,5.047,0,0,1,5.047,0Z" transform="translate(159.209 119)" fill="#fff"/>
        <text id="LIVE" transform="translate(168.572 123)" fill="#d00010" font-size="4" font-family="Roboto-Bold, Roboto" font-weight="700"><tspan x="-4.099" y="0">LIVE</tspan></text>
        <rect id="Rectangle_2194" data-name="Rectangle 2194" width="17.666" height="5.994" rx="2.997" transform="translate(159.84 144.553)" fill="#fff"/>
        <text id="MUSIC" transform="translate(168.048 148.868)" font-size="4" font-family="Roboto-Regular, Roboto"><tspan x="-6.075" y="0">MUSIC</tspan></text>
        <g transform="matrix(0.97, -0.24, 0.24, 0.97, -57.17, 45.53)" filter="url(#Icon_simple-applemusic)">
          <path id="Icon_simple-applemusic-2" data-name="Icon simple-applemusic" d="M9.424,2.405a3.624,3.624,0,0,0-.094-.86A1.93,1.93,0,0,0,8.474.351,1.972,1.972,0,0,0,7.737.065,4.121,4.121,0,0,0,7.123.007L7.074,0H2.353l-.179.01a2.738,2.738,0,0,0-.861.157A1.961,1.961,0,0,0,.189,1.261a2.207,2.207,0,0,0-.143.553,4.165,4.165,0,0,0-.039.463c0,.013,0,.024,0,.037v4.8c0,.055.007.111.011.166a2.584,2.584,0,0,0,.2.932,1.955,1.955,0,0,0,1.27,1.1,2.58,2.58,0,0,0,.508.09c.218.021.436.024.654.024h4.33a4.908,4.908,0,0,0,.616-.039,2.1,2.1,0,0,0,.9-.318A1.981,1.981,0,0,0,9.227,8.2a2.176,2.176,0,0,0,.145-.52,4.8,4.8,0,0,0,.054-.8q0-2.238,0-4.473ZM6.9,3.972V6.215a1.058,1.058,0,0,1-.1.473.831.831,0,0,1-.545.448,1.812,1.812,0,0,1-.42.068.735.735,0,0,1-.355-1.4,1.675,1.675,0,0,1,.4-.127c.148-.032.3-.06.445-.094a.243.243,0,0,0,.2-.2.355.355,0,0,0,.008-.076q0-1.069,0-2.137a.284.284,0,0,0-.01-.073.113.113,0,0,0-.119-.092,1.42,1.42,0,0,0-.186.026l-.9.179-.913.185L3.874,3.5l-.019.005A.177.177,0,0,0,3.7,3.7c0,.016,0,.034,0,.051q0,1.532,0,3.064a1.2,1.2,0,0,1-.084.482.836.836,0,0,1-.563.484,1.744,1.744,0,0,1-.422.068.722.722,0,0,1-.754-.606.732.732,0,0,1,.453-.815,2.316,2.316,0,0,1,.435-.122L3.1,6.238a.273.273,0,0,0,.236-.28V5.9q0-1.743,0-3.487a.625.625,0,0,1,.016-.145.272.272,0,0,1,.214-.2c.1-.026.2-.044.3-.065l.864-.174.891-.181.789-.158a2.383,2.383,0,0,1,.261-.042.194.194,0,0,1,.218.189.807.807,0,0,1,0,.088q0,1.125,0,2.25Z" transform="translate(194.13 135.53) rotate(14)" fill="#fff"/>
        </g>
      </g>
    </g>
    <g id="freepik--Device--inject-25" transform="translate(110.045 68.021)">
      <path id="Path_10702" data-name="Path 10702" d="M254.443,304.692l-71.4-.329a15.554,15.554,0,0,1-15.48-15.616l.755-179.01A15.56,15.56,0,0,1,183.942,94.25l71.4.329a15.548,15.548,0,0,1,15.48,15.616l-.755,179A15.56,15.56,0,0,1,254.443,304.692Z" transform="translate(-167.56 -94.25)" fill="#263238"/>
      <path id="Path_10703" data-name="Path 10703" d="M257.775,103.446l-13.846-.068a3.444,3.444,0,0,0-3.376,3.5v2.508a3.439,3.439,0,0,1-3.376,3.5l-26.983-.125a3.444,3.444,0,0,1-3.348-3.53v-2.514a3.444,3.444,0,0,0-3.348-3.53h-4.869l-12.115-.051a10.9,10.9,0,0,0-10.946,10.844L174.83,288.71a10.9,10.9,0,0,0,10.878,10.918l71.261.329a10.89,10.89,0,0,0,10.941-10.844l.732-174.7a10.889,10.889,0,0,0-10.867-10.963Z" transform="translate(-170.721 -98.095)" fill="#fafafa"/>
      <path id="Path_10704" data-name="Path 10704" d="M191.4,134.318a.3.3,0,0,1-.2-.091l-1.084-1.135a.261.261,0,0,1-.079-.2.278.278,0,0,1,.085-.2l1.09-1.038a.278.278,0,0,1,.4,0,.284.284,0,0,1,0,.4l-.885.84.891.931a.284.284,0,0,1,0,.4A.3.3,0,0,1,191.4,134.318Z" transform="translate(-177.279 -110.394)" fill="#263238"/>
      <rect id="Rectangle_2070" data-name="Rectangle 2070" width="77.208" height="19.935" rx="9.967" transform="translate(13.347 171.582)" fill="#d00010"/>
      <path id="Path_10705" data-name="Path 10705" d="M242.93,410.108h1.793a2.207,2.207,0,1,1,0,4.409H242.93Zm1.77,4.006a1.8,1.8,0,1,0,0-3.6H243.4v3.6Z" transform="translate(-200.161 -230.87)" fill="#fafafa"/>
      <path id="Path_10706" data-name="Path 10706" d="M251.4,412.179a2.315,2.315,0,1,1,2.321,2.241,2.213,2.213,0,0,1-2.321-2.241Zm4.165,0a1.856,1.856,0,1,0-1.844,1.827,1.782,1.782,0,0,0,1.844-1.827Z" transform="translate(-203.823 -230.734)" fill="#fafafa"/>
      <path id="Path_10707" data-name="Path 10707" d="M265.068,410.11v4.409h-.38l-2.837-3.575v3.575h-.471V410.11h.386l2.837,3.575V410.11Z" transform="translate(-208.141 -230.873)" fill="#fafafa"/>
      <path id="Path_10708" data-name="Path 10708" d="M273.525,414.116v.4H270.41V410.11h3.019v.4h-2.554v1.566h2.27v.4h-2.27v1.64Z" transform="translate(-212.047 -230.873)" fill="#fafafa"/>
      <path id="Path_10730" data-name="Path 10730" d="M209.66,262.945h-2.4V261.81h6.14v1.135H211v6.1H209.66Z" transform="translate(-184.732 -166.727)" fill="#ff2a02"/>
      <path id="Path_10731" data-name="Path 10731" d="M225.071,265.561v3.166h-1.288v-3c0-.982-.488-1.458-1.311-1.458a1.473,1.473,0,0,0-1.543,1.663v2.792H219.64V261.05h1.288v2.809a2.468,2.468,0,0,1,1.839-.7A2.132,2.132,0,0,1,225.071,265.561Z" transform="translate(-190.087 -166.398)" fill="#ff2a02"/>
      <path id="Path_10732" data-name="Path 10732" d="M236.421,267.085v3.235h-1.214v-.675a1.958,1.958,0,0,1-1.736.743c-1.26,0-2.06-.692-2.06-1.651s.624-1.64,2.3-1.64h1.441v-.085c0-.755-.454-1.2-1.373-1.2a2.724,2.724,0,0,0-1.7.567l-.505-.936a3.864,3.864,0,0,1,2.332-.687C235.5,264.736,236.421,265.49,236.421,267.085Zm-1.271,1.5v-.636h-1.334c-.88,0-1.135.329-1.135.732s.4.766,1.055.766a1.4,1.4,0,0,0,1.413-.863Z" transform="translate(-195.178 -168.001)" fill="#ff2a02"/>
      <path id="Path_10733" data-name="Path 10733" d="M248.586,267.155v3.166h-1.294v-3c0-.982-.482-1.458-1.311-1.458a1.469,1.469,0,0,0-1.538,1.663v2.792H243.15V264.8h1.231v.715a2.406,2.406,0,0,1,1.9-.777A2.146,2.146,0,0,1,248.586,267.155Z" transform="translate(-200.256 -167.991)" fill="#ff2a02"/>
      <path id="Path_10734" data-name="Path 10734" d="M257.873,266.35l-.959.914v1.458H255.62V261.05h1.294v4.625l2.673-2.48h1.549l-2.3,2.315,2.52,3.206h-1.543Z" transform="translate(-205.65 -166.398)" fill="#ff2a02"/>
      <path id="Path_10735" data-name="Path 10735" d="M276.605,264.83l-2.582,5.964a2.137,2.137,0,0,1-2.128,1.629,2.27,2.27,0,0,1-1.475-.505l.516-.948a1.379,1.379,0,0,0,.948.38c.454,0,.726-.216.97-.766l.1-.216-2.406-5.538h1.339l1.736,4.08,1.748-4.08Z" transform="translate(-212.051 -168.033)" fill="#ff2a02"/>
      <path id="Path_10736" data-name="Path 10736" d="M281.659,267.372a2.939,2.939,0,1,1,2.934,2.837,2.781,2.781,0,0,1-2.934-2.837Zm4.579,0a1.64,1.64,0,1,0-1.646,1.7,1.612,1.612,0,0,0,1.646-1.7Z" transform="translate(-216.912 -167.817)" fill="#ff2a02"/>
      <path id="Path_10737" data-name="Path 10737" d="M299.515,264.83v5.521h-1.231v-.7a2.27,2.27,0,0,1-1.776.772,2.179,2.179,0,0,1-2.378-2.434V264.83h1.294v2.979c0,1,.471,1.475,1.288,1.475a1.5,1.5,0,0,0,1.509-1.663V264.83Z" transform="translate(-222.307 -168.033)" fill="#ff2a02"/>
      <path id="Path_10738" data-name="Path 10738" d="M306.18,268.307a.806.806,0,1,1,.246.58A.8.8,0,0,1,306.18,268.307Zm.074-6.5h1.526l-.255,4.835H306.5Z" transform="translate(-227.519 -166.727)" fill="#ff2a02"/>
      <circle id="Ellipse_582" data-name="Ellipse 582" cx="14.856" cy="14.856" r="14.856" transform="translate(37.611 54.55)" fill="#d00010"/>
      <path id="Path_10739" data-name="Path 10739" d="M262.524,205.506c.187.153-2.588,3.887-6.2,8.336l-2.19,2.656-.3.363-.318-.329c-2.837-2.911-4.75-5.067-4.613-5.2s2.3,1.788,5.2,4.608L253.5,216l2.145-2.684C259.25,208.837,262.331,205.353,262.524,205.506Z" transform="translate(-202.742 -142.371)" fill="#fff"/>
      <path id="Path_10740" data-name="Path 10740" d="M295.328,204.924c-.443-1.561-2.468-1.407-2.468-1.407l.051,1.084c1.175-.2,1.9,1.169,1.9,1.169Z" transform="translate(-221.757 -141.511)" fill="#ff9480"/>
      <path id="Path_10741" data-name="Path 10741" d="M219.488,210.7c-.437-1.561-2.468-1.413-2.468-1.413l.057,1.09c1.175-.2,1.9,1.169,1.9,1.169Z" transform="translate(-188.953 -144.007)" fill="#e0e0e0"/>
      <path id="Path_10742" data-name="Path 10742" d="M262.634,171.585c2.355.715,3.819-2,3.819-2l-1.43-.817c-.7,1.663-3.053,1.47-3.053,1.47Z" transform="translate(-208.396 -126.483)" fill="#e0e0e0"/>
      <path id="Path_10743" data-name="Path 10743" d="M239.2,178.88c-1.1.119-1.226,1.492-1.226,1.492l.732.085c0-.806,1-1.135,1-1.135Z" transform="translate(-198.015 -130.856)" fill="#ff9480"/>
      <path id="Path_10744" data-name="Path 10744" d="M318.6,195.411c.159-1.09-1.135-1.561-1.135-1.561l-.267.687c.783.2.857,1.254.857,1.254Z" transform="translate(-232.285 -137.331)" fill="#e0e0e0"/>
      <path id="Path_10745" data-name="Path 10745" d="M250.322,152.421c.159-1.09-1.135-1.561-1.135-1.561l-.267.692c.783.2.857,1.248.857,1.248Z" transform="translate(-202.751 -118.736)" fill="#ff9480"/>
      <path id="Path_10746" data-name="Path 10746" d="M203.7,184.035c-.193,1.7,2.066,2.122,2.066,2.122l.409-1.135c-1.356-.125-1.549-1.7-1.549-1.7Z" transform="translate(-183.187 -132.776)" fill="#ff9480"/>
      <path id="Path_10747" data-name="Path 10747" d="M292.141,172.545c1.1.062,1.453-1.271,1.453-1.271l-.709-.2c-.131.794-1.175.959-1.175.959Z" transform="translate(-221.26 -127.478)" fill="#ff9480"/>
      <path id="Path_10748" data-name="Path 10748" d="M301.676,181.5a2.547,2.547,0,0,1-.908.085,2.519,2.519,0,0,1-.908-.085A4.585,4.585,0,0,1,301.676,181.5Z" transform="translate(-224.785 -131.95)" fill="#e0e0e0"/>
      <path id="Path_10749" data-name="Path 10749" d="M304.691,177.22a5,5,0,0,1,0,1.839,4.7,4.7,0,0,1,0-1.839Z" transform="translate(-226.835 -130.138)" fill="#e0e0e0"/>
      <path id="Path_10750" data-name="Path 10750" d="M306.56,181.388a2.548,2.548,0,0,1,.908-.085,2.52,2.52,0,0,1,.908.085A4.586,4.586,0,0,1,306.56,181.388Z" transform="translate(-227.683 -131.899)" fill="#e0e0e0"/>
      <path id="Path_10751" data-name="Path 10751" d="M304.8,184.414a4.727,4.727,0,0,1,0-1.844A5.039,5.039,0,0,1,304.8,184.414Z" transform="translate(-226.883 -132.452)" fill="#e0e0e0"/>
      <path id="Path_10752" data-name="Path 10752" d="M306.952,183.409c-.034.028-.21-.119-.392-.329s-.289-.414-.255-.443.216.113.392.329S306.992,183.347,306.952,183.409Z" transform="translate(-227.57 -132.479)" fill="#e0e0e0"/>
      <path id="Path_10753" data-name="Path 10753" d="M306.785,179c.034.04-.085.216-.272.4s-.363.312-.4.278.085-.216.272-.4A1.056,1.056,0,0,1,306.785,179Z" transform="translate(-227.488 -130.908)" fill="#e0e0e0"/>
      <path id="Path_10754" data-name="Path 10754" d="M303.148,179.862c-.034.04-.2-.051-.38-.2s-.289-.3-.261-.329.2.051.375.193S303.176,179.828,303.148,179.862Z" transform="translate(-225.928 -131.049)" fill="#e0e0e0"/>
      <path id="Path_10755" data-name="Path 10755" d="M303.022,182.446c.04.028-.068.2-.238.392s-.335.306-.369.272.068-.21.238-.392S302.988,182.412,303.022,182.446Z" transform="translate(-225.887 -132.396)" fill="#e0e0e0"/>
      <path id="Path_10756" data-name="Path 10756" d="M214.556,172.578a4.585,4.585,0,0,1-1.816,0,2.548,2.548,0,0,1,.908-.085A2.52,2.52,0,0,1,214.556,172.578Z" transform="translate(-187.102 -128.089)" fill="#f195ee"/>
      <path id="Path_10757" data-name="Path 10757" d="M217.571,168.3a4.727,4.727,0,0,1,0,1.844A4.727,4.727,0,0,1,217.571,168.3Z" transform="translate(-189.152 -126.28)" fill="#f195ee"/>
      <path id="Path_10758" data-name="Path 10758" d="M219.45,172.481a4.585,4.585,0,0,1,1.816,0A4.585,4.585,0,0,1,219.45,172.481Z" transform="translate(-190.004 -128.049)" fill="#f195ee"/>
      <path id="Path_10759" data-name="Path 10759" d="M217.681,175.5a4.7,4.7,0,0,1,0-1.839A4.7,4.7,0,0,1,217.681,175.5Z" transform="translate(-189.2 -128.598)" fill="#f195ee"/>
      <path id="Path_10760" data-name="Path 10760" d="M219.841,174.408c-.04.034-.216-.113-.392-.329s-.3-.409-.255-.443.21.119.392.329S219.875,174.408,219.841,174.408Z" transform="translate(-189.891 -128.586)" fill="#f195ee"/>
      <path id="Path_10761" data-name="Path 10761" d="M219.675,170.091c.034.034-.091.216-.272.4s-.363.306-.4.272.085-.21.272-.4S219.641,170.034,219.675,170.091Z" transform="translate(-189.81 -127.049)" fill="#f195ee"/>
      <path id="Path_10762" data-name="Path 10762" d="M216.031,170.946c-.028.034-.2-.051-.375-.2s-.3-.3-.261-.335.2.051.375.2S216.065,170.907,216.031,170.946Z" transform="translate(-188.248 -127.189)" fill="#f195ee"/>
      <path id="Path_10763" data-name="Path 10763" d="M215.907,173.526c.034.034-.074.21-.238.4s-.335.306-.375.272.074-.21.238-.392S215.867,173.492,215.907,173.526Z" transform="translate(-188.203 -128.538)" fill="#f195ee"/>
      <path id="Path_10764" data-name="Path 10764" d="M320.508,130.923a54.538,54.538,0,0,1-8.018,0,54.546,54.546,0,0,1,8.018,0Z" transform="translate(-230.248 -110.04)" fill="#263238"/>
      <path id="Path_10765" data-name="Path 10765" d="M320.508,133.874a54.544,54.544,0,0,1-8.018,0,54.544,54.544,0,0,1,8.018,0Z" transform="translate(-230.248 -111.317)" fill="#263238"/>
      <path id="Path_10766" data-name="Path 10766" d="M320.508,136.8a54.549,54.549,0,0,1-8.018,0,54.547,54.547,0,0,1,8.018,0Z" transform="translate(-230.248 -112.585)" fill="#263238"/>
      <rect id="Rectangle_2071" data-name="Rectangle 2071" width="18.686" height="23.589" transform="translate(62.049 161.552) rotate(-179.55)" fill="#ebebeb"/>
      <path id="Path_10767" data-name="Path 10767" d="M261.836,338.593l-.335,22.835-2.951-.023.636-22.835Z" transform="translate(-206.917 -199.928)" fill="#fafafa"/>
      <path id="Path_10768" data-name="Path 10768" d="M225.246,338.3l10.719.085,18.686.148-18.7,2.457-.159,20.236-10.719-.085Z" transform="translate(-192.435 -199.812)" fill="#e0e0e0"/>
      <path id="Path_10769" data-name="Path 10769" d="M232.919,338.363l-.426,22.84-3.183-.028.522-22.835Z" transform="translate(-194.269 -199.829)" fill="#fafafa"/>
      <path id="Path_10770" data-name="Path 10770" d="M243.838,320.489c0,.148-.312.3-.885.437a14.7,14.7,0,0,1-4.239.306,6.969,6.969,0,0,1-.993-.108,8.068,8.068,0,0,1-1.09-.233,3.307,3.307,0,0,1-.675-.289,2.167,2.167,0,0,1-.709-.67,1.992,1.992,0,0,1-.306-1.027,3.405,3.405,0,0,1,.091-.794,13.807,13.807,0,0,1,.715-2.366,6.373,6.373,0,0,1,.687-1.2,5.1,5.1,0,0,1,.46-.567,3.514,3.514,0,0,1,.624-.505,2.52,2.52,0,0,1,.846-.34,2.236,2.236,0,0,1,.97.028,3.155,3.155,0,0,1,1.277.7,10.486,10.486,0,0,1,2.457,3.013,7.377,7.377,0,0,1,.823,2.457c.074.613,0,.959-.136.987-.3.074-.738-1.135-1.929-2.644a12.161,12.161,0,0,0-2.4-2.27,1.408,1.408,0,0,0-.567-.278.2.2,0,0,0-.1,0,.749.749,0,0,0-.159.085,1.856,1.856,0,0,0-.238.21c-.085.1-.182.216-.267.335a4.632,4.632,0,0,0-.448.817,15.887,15.887,0,0,0-.641,2,1.419,1.419,0,0,0-.057.3h-.057c-.068,0-.085.034-.04,0l.068-.051a.2.2,0,0,0,.051.051,1.416,1.416,0,0,0,.267.136,7.373,7.373,0,0,0,.834.25c.289.079.567.142.857.2.567.114,1.1.193,1.589.261.993.13,1.822.221,2.395.329S243.832,320.348,243.838,320.489Z" transform="translate(-196.705 -188.907)" fill="#e0e0e0"/>
      <path id="Path_10771" data-name="Path 10771" d="M249.835,319.94c-.051-.3,1.345-.732,3.524-1.373a29.98,29.98,0,0,0,3.677-1.317,3.729,3.729,0,0,0,.8-.443c.085-.074.125-.136.113-.131s0,.085-.028.045a2.275,2.275,0,0,0-.131-.329l-.272-.567a9.081,9.081,0,0,0-.567-1.016,4.207,4.207,0,0,0-.664-.794,3.618,3.618,0,0,0-.374-.3,1.667,1.667,0,0,0-.34-.182.846.846,0,0,0-.567-.051,1.8,1.8,0,0,0-.658.38,14.345,14.345,0,0,0-2.554,2.775c-1.254,1.782-1.583,3.172-1.9,3.127-.136,0-.238-.4-.187-1.084a7.8,7.8,0,0,1,.806-2.781,12.24,12.24,0,0,1,2.559-3.484,3.683,3.683,0,0,1,1.328-.834,2.837,2.837,0,0,1,1.85,0,3.817,3.817,0,0,1,.777.386,4.706,4.706,0,0,1,.63.477,5.952,5.952,0,0,1,1.021,1.192,9.766,9.766,0,0,1,.7,1.265l.272.6a3.359,3.359,0,0,1,.278.857,1.929,1.929,0,0,1-.21,1.237,2.315,2.315,0,0,1-.692.766,5.216,5.216,0,0,1-1.277.636,19.263,19.263,0,0,1-4.091.982C251.321,320.3,249.869,320.213,249.835,319.94Z" transform="translate(-203.087 -188.188)" fill="#ebebeb"/>
      <rect id="Rectangle_2072" data-name="Rectangle 2072" width="27.465" height="7.808" transform="translate(56.885 138.668) rotate(-179.55)" fill="#e0e0e0"/>
      <rect id="Rectangle_2073" data-name="Rectangle 2073" width="24.826" height="7.808" transform="translate(64.342 138.725) rotate(-179.55)" fill="#ebebeb"/>
      <path id="Path_10772" data-name="Path 10772" d="M265.28,324.853l-.176,7.842-2.894-.057.2-7.808Z" transform="translate(-208.5 -193.985)" fill="#fafafa"/>
      <path id="Path_10773" data-name="Path 10773" d="M228.727,324.608l-.284,7.774-3.183-.028.17-7.814Z" transform="translate(-192.518 -193.86)" fill="#fafafa"/>
      <rect id="Rectangle_2074" data-name="Rectangle 2074" width="10.589" height="13.364" transform="translate(74.196 161.059) rotate(-179.55)" fill="#ebebeb"/>
      <path id="Path_10774" data-name="Path 10774" d="M289.761,355.211l-.187,12.944-1.674-.011.358-12.944Z" transform="translate(-219.612 -207.122)" fill="#fafafa"/>
      <path id="Path_10775" data-name="Path 10775" d="M269.026,355.05l6.077.045,10.589.085-10.6,1.4L275,368.039l-6.072-.045Z" transform="translate(-211.407 -207.057)" fill="#e0e0e0"/>
      <path id="Path_10776" data-name="Path 10776" d="M273.373,355.087l-.238,12.938-1.8-.011.3-12.944Z" transform="translate(-212.445 -207.065)" fill="#fafafa"/>
      <path id="Path_10777" data-name="Path 10777" d="M279.451,344.881c0,.2-.692.437-1.907.567a6.924,6.924,0,0,1-2.219-.182,1.5,1.5,0,0,1-.857-.567,1.294,1.294,0,0,1-.2-.653,2.22,2.22,0,0,1,.051-.488,8,8,0,0,1,.414-1.368,4.047,4.047,0,0,1,.4-.709,2.514,2.514,0,0,1,.681-.658,1.487,1.487,0,0,1,1.135-.193,2,2,0,0,1,.777.431,5.861,5.861,0,0,1,1.4,1.759c.567,1.135.488,1.98.3,2.009s-.494-.619-1.18-1.441a7.162,7.162,0,0,0-1.356-1.254.692.692,0,0,0-.255-.13h0l-.04.028a1.232,1.232,0,0,0-.244.272,2.27,2.27,0,0,0-.238.437,8.513,8.513,0,0,0-.358,1.135l-.034.131h-.176a.4.4,0,0,0,.1-.091l.034-.034h0a.567.567,0,0,0,.125.068,9.9,9.9,0,0,0,1.822.426C278.707,344.54,279.451,344.671,279.451,344.881Z" transform="translate(-213.716 -200.803)" fill="#e0e0e0"/>
      <path id="Path_10778" data-name="Path 10778" d="M282.877,344.512c-.04-.227.749-.528,1.963-.931a19.961,19.961,0,0,0,2.043-.777,1.889,1.889,0,0,0,.4-.233c.034-.028.034-.051,0,0a.341.341,0,0,0-.04.159l-.21-.443a5.435,5.435,0,0,0-.312-.567,1.913,1.913,0,0,0-.34-.409,1.135,1.135,0,0,0-.335-.238.272.272,0,0,0-.176,0,.7.7,0,0,0-.306.17,8.633,8.633,0,0,0-1.447,1.5c-.732.959-.97,1.731-1.2,1.7s-.375-.942.216-2.27a6.81,6.81,0,0,1,1.453-2.049,2.31,2.31,0,0,1,.817-.522,1.787,1.787,0,0,1,1.18,0,2.157,2.157,0,0,1,.488.233,3.307,3.307,0,0,1,.386.3,3.6,3.6,0,0,1,.613.709,7.09,7.09,0,0,1,.409.743l.153.346a2.122,2.122,0,0,1,.176.567,1.294,1.294,0,0,1-.148.834,1.577,1.577,0,0,1-.448.5,3.088,3.088,0,0,1-.772.38,10.347,10.347,0,0,1-2.366.522C283.745,344.824,282.922,344.722,282.877,344.512Z" transform="translate(-217.369 -200.332)" fill="#e0e0e0"/>
      <rect id="Rectangle_2075" data-name="Rectangle 2075" width="15.565" height="4.426" transform="translate(71.264 148.098) rotate(-179.55)" fill="#e0e0e0"/>
      <rect id="Rectangle_2076" data-name="Rectangle 2076" width="14.067" height="4.426" transform="translate(75.498 148.127) rotate(-179.55)" fill="#ebebeb"/>
      <path id="Path_10779" data-name="Path 10779" d="M291.712,347.431l-.1,4.443-1.646-.034.119-4.421Z" transform="translate(-220.507 -203.756)" fill="#fafafa"/>
      <path id="Path_10780" data-name="Path 10780" d="M271,347.29l-.159,4.4-1.8-.011.1-4.432Z" transform="translate(-211.454 -203.683)" fill="#fafafa"/>
    </g>
    <g id="freepik--Plant--inject-25" transform="translate(240.927 240.268)">
      <path id="Path_10781" data-name="Path 10781" d="M418.963,397.8a7.042,7.042,0,0,1,3.649,4.131,12.382,12.382,0,0,1,.482,5.6c-.409,3.632-2.474,7.3-4.693,10.214-3.059-2.667-3.762-7.326-3.972-9.709-.329-3.768,1.362-10.782,4.54-10.214" transform="translate(-405.206 -397.793)" fill="#4effb2"/>
      <path id="Path_10782" data-name="Path 10782" d="M427.63,437.72a6,6,0,0,1,1.941-5.709,7.945,7.945,0,0,1,5.879-1.839,3.411,3.411,0,0,1,2.582,1.135,2.565,2.565,0,0,1,.04,2.6,5.181,5.181,0,0,1-1.924,1.9c-2.65,1.663-5.521,2.786-8.512,1.89" transform="translate(-410.882 -411.783)" fill="#4effb2"/>
      <path id="Path_10783" data-name="Path 10783" d="M420.81,451.595a4.334,4.334,0,0,1,.108-.743c.1-.528.221-1.2.369-2.02a21.1,21.1,0,0,1,2.083-6.441,12.91,12.91,0,0,1,4.625-4.914,8.818,8.818,0,0,1,1.884-.834,4.8,4.8,0,0,1,.567-.142c.148-.034.193-.034.193,0a11.956,11.956,0,0,0-7.014,6.038,22.622,22.622,0,0,0-2.128,6.356c-.187.846-.34,1.532-.454,2a4.28,4.28,0,0,1-.233.7Z" transform="translate(-407.983 -414.524)" fill="#263238"/>
      <path id="Path_10784" data-name="Path 10784" d="M420.883,407.42a1.391,1.391,0,0,1,.04.329c0,.238.034.567.057.936.04.811.091,1.986.136,3.444.091,2.911.165,6.934.148,11.349s-.125,8.466-.25,11.378c-.057,1.458-.113,2.633-.165,3.444-.028.386-.045.692-.062.936h0c.04-.323-.057.21-.057,0V438.3c0-.846.045-2.014.079-3.444.074-2.911.153-6.929.176-11.349s-.028-8.461-.074-11.349c0-1.43-.04-2.6-.057-3.45v-.936A2.472,2.472,0,0,1,420.883,407.42Z" transform="translate(-407.948 -401.957)" fill="#263238"/>
      <path id="Path_10785" data-name="Path 10785" d="M409.665,439.164a14.062,14.062,0,0,0-7.672-10.288c-1.021-.488-2.355-.811-3.195-.051s-.658,2.128-.244,3.189a12.007,12.007,0,0,0,11.037,7.451" transform="translate(-398.206 -411.02)" fill="#4effb2"/>
      <path id="Path_10786" data-name="Path 10786" d="M405.75,435.33a3.513,3.513,0,0,1,.653.284,6.465,6.465,0,0,1,.732.392,10.007,10.007,0,0,1,.931.568,11.744,11.744,0,0,1,1.072.806,13.276,13.276,0,0,1,1.135,1.033,15.572,15.572,0,0,1,2.162,2.775,15.32,15.32,0,0,1,1.419,3.217,12.9,12.9,0,0,1,.363,1.492,11.286,11.286,0,0,1,.182,1.322c.057.409.034.777.051,1.1a6.242,6.242,0,0,1,0,.834,3.79,3.79,0,0,1-.079.7c-.062,0,.04-1.01-.136-2.616a12.631,12.631,0,0,0-.21-1.305c-.085-.465-.233-.953-.38-1.464a15.589,15.589,0,0,0-1.419-3.149,15.994,15.994,0,0,0-2.105-2.741,14.2,14.2,0,0,0-1.1-1.038c-.352-.318-.715-.567-1.038-.817C406.646,435.8,405.721,435.381,405.75,435.33Z" transform="translate(-401.468 -414.029)" fill="#263238"/>
    </g>
  </g>
</svg>
