<svg xmlns="http://www.w3.org/2000/svg" xmlns:xlink="http://www.w3.org/1999/xlink" width="40" height="40" viewBox="0 0 40 40">
  <defs>
    <filter id="Rectangle_2177" x="0" y="0" width="40" height="40" filterUnits="userSpaceOnUse">
      <feOffset dy="3" input="SourceAlpha"/>
      <feGaussianBlur stdDeviation="3" result="blur"/>
      <feFlood flood-opacity="0.161"/>
      <feComposite operator="in" in2="blur"/>
      <feComposite in="SourceGraphic"/>
    </filter>
  </defs>
  <g id="Group_9381" data-name="Group 9381" transform="translate(-30 -368.389)">
    <g transform="matrix(1, 0, 0, 1, 30, 368.39)" filter="url(#Rectangle_2177)">
      <rect id="Rectangle_2177-2" data-name="Rectangle 2177" width="22" height="22" rx="4" transform="translate(9 6)" fill="#fff"/>
    </g>
    <path id="Icon_metro-file-text" data-name="Icon metro-file-text" d="M15.987,5.01a12.2,12.2,0,0,0-1.173-1.342A12.2,12.2,0,0,0,13.473,2.5a2.146,2.146,0,0,0-1.223-.568H5.575A1.078,1.078,0,0,0,4.5,3V14.63a1.078,1.078,0,0,0,1.076,1.076h9.9a1.078,1.078,0,0,0,1.076-1.076v-8.4a2.146,2.146,0,0,0-.568-1.223Zm-1.782-.733a11.745,11.745,0,0,1,.977,1.095H13.11V3.3a11.733,11.733,0,0,1,1.095.977ZM15.694,14.63a.218.218,0,0,1-.215.215h-9.9a.218.218,0,0,1-.215-.215V3a.218.218,0,0,1,.215-.215h6.674V5.8a.431.431,0,0,0,.431.431h3.014Zm-2.153-1.507H7.513a.431.431,0,1,1,0-.861h6.028a.431.431,0,1,1,0,.861Zm0-1.722H7.513a.431.431,0,1,1,0-.861h6.028a.431.431,0,1,1,0,.861Zm0-1.722H7.513a.431.431,0,1,1,0-.861h6.028a.431.431,0,1,1,0,.861Z" transform="translate(39.473 376.571)" fill="#d00010"/>
  </g>
</svg>
