<svg xmlns="http://www.w3.org/2000/svg" width="27" height="27" viewBox="0 0 27 27">
  <g id="Group_9378" data-name="Group 9378" transform="translate(-94 -504)">
    <circle id="Ellipse_511" data-name="Ellipse 511" cx="13.5" cy="13.5" r="13.5" transform="translate(94 504)" fill="#f195ee" opacity="0.3"/>
    <g id="visa-svgrepo-com_2_" data-name="visa-svgrepo-com (2)" transform="translate(97.052 514.011)">
      <path id="Path_3321" data-name="Path 3321" d="M11.175-80.438c-.012.972.866,1.514,1.528,1.837.68.331.908.543.906.839-.005.453-.542.653-1.045.661a3.648,3.648,0,0,1-1.793-.426l-.316,1.479a5.257,5.257,0,0,0,1.941.358c1.834,0,3.033-.905,3.04-2.309.007-1.781-2.464-1.88-2.447-2.676.006-.241.236-.5.741-.564a3.287,3.287,0,0,1,1.721.3l.307-1.431a4.68,4.68,0,0,0-1.634-.3c-1.726,0-2.94.917-2.95,2.231m7.532-2.107a.8.8,0,0,0-.743.5L15.345-75.8h1.832l.365-1.008h2.239l.212,1.008h1.615L20.2-82.545H18.707m.256,1.823.529,2.534H18.044l.919-2.534M8.953-82.545,7.509-75.8H9.255L10.7-82.545H8.953m-2.583,0L4.553-77.951l-.735-3.906a.814.814,0,0,0-.805-.688H.042l-.042.2a7.269,7.269,0,0,1,1.723.574.739.739,0,0,1,.415.593L3.53-75.8H5.375L8.2-82.545H6.37" transform="translate(0 82.668)" fill="#467bff"/>
    </g>
  </g>
</svg>
